<?xml version="1.0" encoding="UTF-8"?>
<!-- Generator: visioncortex VTracer 0.6.3 -->
<svg version="1.1" xmlns="http://www.w3.org/2000/svg" width="1052" height="1280">
<path d="M0 0 C3.62 0.95 7.11 1.69 10.83 2.02 C14.31 2.37 15.64 2.85 18.58 4.4 C19.94 4.86 21.31 5.29 22.69 5.69 C23.45 5.9 24.2 6.12 24.98 6.35 C25.76 6.57 26.53 6.79 27.33 7.02 C28.13 7.25 28.92 7.48 29.74 7.72 C31.69 8.28 33.63 8.84 35.58 9.4 C35.58 10.06 35.58 10.72 35.58 11.4 C36.76 11.49 36.76 11.49 37.96 11.58 C42.03 12.5 45.18 14.08 48.83 16.04 C51.7 17.51 51.7 17.51 55.33 18.77 C60.02 20.49 64.37 22.73 68.77 25.08 C69.6 25.52 70.43 25.96 71.28 26.42 C81.03 31.64 90.3 37.01 98.58 44.4 C99.57 44.73 100.56 45.06 101.58 45.4 C102.72 46.14 103.83 46.92 104.92 47.73 C105.57 48.21 106.21 48.7 106.88 49.19 C107.57 49.71 108.25 50.23 108.96 50.77 C109.67 51.3 110.37 51.83 111.1 52.38 C116.41 56.42 121.56 60.63 126.6 65 C129.41 67.46 129.41 67.46 132.58 69.4 C132.58 70.06 132.58 70.72 132.58 71.4 C133.12 71.61 133.65 71.83 134.21 72.05 C137.44 73.88 139.97 76.35 142.65 78.9 C145.52 81.61 148.28 84.19 151.58 86.4 C151.58 87.06 151.58 87.72 151.58 88.4 C152.24 88.4 152.9 88.4 153.58 88.4 C153.69 89.04 153.79 89.67 153.9 90.33 C154.24 91.35 154.24 91.35 154.58 92.4 C155.57 92.73 156.56 93.06 157.58 93.4 C157.58 94.06 157.58 94.72 157.58 95.4 C158.24 95.4 158.9 95.4 159.58 95.4 C159.92 96.23 159.92 96.23 160.27 97.08 C161.96 100.05 164.15 102 166.58 104.4 C168.77 106.64 170.93 108.92 173.08 111.21 C173.64 111.79 174.2 112.36 174.77 112.96 C178.24 116.66 181 120.4 183.52 124.8 C184.51 126.56 184.51 126.56 186.58 127.4 C186.58 128.72 186.58 130.04 186.58 131.4 C187.19 131.48 187.79 131.56 188.41 131.65 C191.24 132.62 191.84 133.79 193.33 136.33 C193.98 137.4 193.98 137.4 194.63 138.49 C195.58 140.4 195.58 140.4 195.58 142.4 C196.57 142.73 197.56 143.06 198.58 143.4 C198.91 144.39 199.24 145.38 199.58 146.4 C201.4 148.76 203.29 151.05 205.22 153.32 C209.61 158.75 209.61 158.75 209.46 162.4 C209.17 163.06 208.88 163.72 208.58 164.4 C209.57 164.73 210.56 165.06 211.58 165.4 C214.82 168.14 216.06 170.5 217.58 174.4 C218.87 176.1 220.21 177.77 221.58 179.4 C224.47 182.92 224.47 182.92 225.08 185.46 C225.43 187.47 225.43 187.47 226.96 188.77 C229.2 191.01 230.18 193.54 231.58 196.4 C232.51 197.94 233.45 199.48 234.4 201.02 C237.25 205.71 239.67 210.53 242.08 215.46 C243.48 218.2 245.01 220.79 246.65 223.4 C249.4 227.87 251.37 232.47 253.31 237.35 C254.57 240.36 256 243.2 257.52 246.08 C260.33 251.57 262.4 257.16 264.32 262.99 C265.66 267.02 267.22 270.83 269.02 274.67 C271.7 280.46 273.68 286.35 275.52 292.46 C275.86 293.56 276.2 294.67 276.55 295.81 C279.94 307.14 282.58 318.63 285.05 330.19 C285.5 332.42 285.5 332.42 286.58 334.4 C286.86 337.05 287.03 339.71 287.21 342.38 C287.64 345.86 288.6 349.02 289.58 352.4 C290.34 355.74 291 359.09 291.65 362.46 C291.82 363.38 292 364.3 292.18 365.25 C293.38 371.74 294.13 378.08 294.41 384.68 C294.49 387.27 294.49 387.27 295.08 389.22 C298.68 404.83 295.59 423.84 292.58 439.4 C292.43 440.22 292.27 441.05 292.11 441.91 C291.94 442.72 291.78 443.52 291.61 444.36 C291.39 445.45 291.39 445.45 291.16 446.56 C290.58 448.4 290.58 448.4 288.58 450.4 C288.35 452.02 288.12 453.65 287.92 455.28 C286.82 462.21 284.12 468.81 281.45 475.27 C280.77 476.95 280.16 478.67 279.58 480.4 C278.58 481.73 277.58 483.06 276.58 484.4 C276.25 485.39 275.92 486.38 275.58 487.4 C274.92 487.4 274.26 487.4 273.58 487.4 C273.3 488.3 273.01 489.21 272.71 490.15 C271.82 492.72 270.87 495.01 269.58 497.4 C268.92 497.4 268.26 497.4 267.58 497.4 C266.92 499.71 266.26 502.02 265.58 504.4 C264.92 504.4 264.26 504.4 263.58 504.4 C261.8 506 261.8 506 260.02 508.08 C259.4 508.77 258.78 509.45 258.14 510.16 C256.42 512.32 256.42 512.32 256.06 515.04 C255.58 517.4 255.58 517.4 252.58 519.4 C252.58 518.74 252.58 518.08 252.58 517.4 C251.92 518.06 251.26 518.72 250.58 519.4 C250.58 520.39 250.58 521.38 250.58 522.4 C250 522.65 249.41 522.91 248.81 523.18 C246.41 524.49 244.85 525.93 242.96 527.9 C242.37 528.5 241.78 529.11 241.17 529.74 C240.65 530.29 240.12 530.83 239.58 531.4 C238.92 532.06 238.26 532.72 237.58 533.4 C237.58 534.06 237.58 534.72 237.58 535.4 C233.2 538.4 233.2 538.4 230.58 538.4 C229.92 539.72 229.26 541.04 228.58 542.4 C227.92 542.4 227.26 542.4 226.58 542.4 C226.58 541.74 226.58 541.08 226.58 540.4 C224.46 542.32 224.46 542.32 223.27 544.96 C221.58 547.4 221.58 547.4 218.9 548.21 C217.75 548.3 217.75 548.3 216.58 548.4 C216.25 549.39 215.92 550.38 215.58 551.4 C214.64 551.48 213.69 551.56 212.71 551.65 C211.68 551.89 210.65 552.14 209.58 552.4 C208.9 553.72 208.23 555.05 207.58 556.4 C204.74 557.6 202.04 558.31 199.02 558.9 C196.38 559.44 194.06 560.34 191.58 561.4 C191.58 562.06 191.58 562.72 191.58 563.4 C188.6 564.64 185.71 565.61 182.58 566.4 C181.82 566.71 181.06 567.01 180.27 567.33 C174.9 569.46 170.41 570.51 164.61 570.33 C162.48 570.4 160.75 570.8 158.71 571.4 C154.01 572.72 149.43 572.57 144.58 572.4 C144.91 571.08 145.24 569.76 145.58 568.4 C146.24 568.4 146.9 568.4 147.58 568.4 C147.89 567.78 148.2 567.16 148.52 566.52 C149.21 565.15 149.9 563.77 150.58 562.4 C151.24 562.4 151.9 562.4 152.58 562.4 C152.83 561.84 153.07 561.29 153.32 560.72 C154.85 557.9 156.72 555.62 158.77 553.15 C159.58 552.18 160.38 551.21 161.21 550.21 C164.84 545.91 168.53 541.66 172.31 537.49 C172.86 536.88 173.4 536.27 173.96 535.65 C174.44 535.11 174.92 534.58 175.42 534.04 C176.74 532.18 177.17 530.62 177.58 528.4 C178.57 528.73 179.56 529.06 180.58 529.4 C180.79 528.74 181 528.08 181.21 527.4 C182.47 524.64 183.78 522.76 185.65 520.4 C187.95 517.43 189.34 515.25 189.58 511.4 C190.24 511.4 190.9 511.4 191.58 511.4 C191.65 510.84 191.71 510.28 191.77 509.71 C192.92 506.45 195.13 504.79 197.58 502.4 C199.92 499.07 200.94 496.39 201.58 492.4 C202.58 490.4 202.58 490.4 204.58 487.4 C205.05 485.66 205.05 485.66 205.52 483.9 C206.58 480.4 206.58 480.4 208.21 478.83 C209.93 477.34 209.93 477.34 209.77 474.21 C209.71 473.28 209.65 472.35 209.58 471.4 C210.57 471.07 211.56 470.74 212.58 470.4 C212.58 467.43 212.58 464.46 212.58 461.4 C213.57 461.07 214.56 460.74 215.58 460.4 C215.38 459.12 215.17 457.84 214.96 456.52 C214.61 454.34 214.61 454.34 214.58 452.4 C215.24 451.74 215.9 451.08 216.58 450.4 C219.04 442.16 218.89 433.53 218.83 425.02 C218.84 423.8 218.85 422.57 218.86 421.31 C218.84 410.53 217.58 400.2 214.65 389.83 C213.08 384.21 211.66 378.58 210.39 372.88 C209.52 370.21 208.27 368.62 206.58 366.4 C205.96 364.28 205.96 364.28 205.58 362.08 C204.99 359.03 204.25 356.36 202.96 353.52 C201.58 350.4 201.58 350.4 201.58 347.4 C200.92 347.4 200.26 347.4 199.58 347.4 C199.34 346.76 199.1 346.11 198.85 345.45 C197.09 340.92 195.29 336.61 192.78 332.43 C191.16 329.68 189.7 326.85 188.21 324.02 C185.72 319.37 183.06 314.99 180.05 310.65 C178.37 308.06 176.95 305.38 175.52 302.65 C173.29 298.44 171.07 295.59 167.58 292.4 C167.25 291.41 166.92 290.42 166.58 289.4 C165.92 289.4 165.26 289.4 164.58 289.4 C161.58 285.01 161.58 285.01 161.58 282.4 C160.92 282.4 160.26 282.4 159.58 282.4 C159.52 281.56 159.52 281.56 159.46 280.71 C158.68 278.06 158.68 278.06 155.65 275.96 C152.51 273.34 152 272.04 150.58 268.4 C149.26 268.02 147.93 267.69 146.58 267.4 C145.33 265.33 145.33 265.33 144.58 263.4 C143.59 263.4 142.6 263.4 141.58 263.4 C141.58 262.74 141.58 262.08 141.58 261.4 C140.92 261.4 140.26 261.4 139.58 261.4 C137.92 259.73 136.25 258.06 134.58 256.4 C133.92 256.4 133.26 256.4 132.58 256.4 C132.21 257.08 131.84 257.76 131.46 258.46 C129.29 261.86 126.78 263.97 123.72 266.56 C121.65 268.34 119.66 270.17 117.71 272.08 C117.16 272.62 116.6 273.16 116.03 273.72 C114.5 275.35 114.5 275.35 113.58 277.43 C111.96 280.61 109.37 282.21 106.58 284.4 C106.58 283.74 106.58 283.08 106.58 282.4 C105.92 283.06 105.26 283.72 104.58 284.4 C104.58 285.39 104.58 286.38 104.58 287.4 C103.86 287.47 103.13 287.55 102.38 287.63 C98.88 288.59 97.37 290.08 94.83 292.65 C94.06 293.41 93.28 294.18 92.48 294.97 C90.47 297.55 89.93 299.19 89.58 302.4 C88.26 302.73 86.94 303.06 85.58 303.4 C85.58 304.72 85.58 306.04 85.58 307.4 C83.91 309.07 82.21 310.57 80.4 312.08 C72.82 318.31 72.82 318.31 67.58 326.4 C67.58 327.06 67.58 327.72 67.58 328.4 C66.92 328.4 66.26 328.4 65.58 328.4 C65.21 329.57 65.21 329.57 64.83 330.77 C63.36 333.88 62.67 334.11 59.58 335.4 C57.57 336.71 55.57 338.04 53.58 339.4 C55.91 339.58 55.91 339.58 58.58 337.4 C57.08 341.23 54.75 342.87 51.58 345.4 C50.88 346.71 50.22 348.05 49.58 349.4 C47.92 351.4 46.25 353.4 44.58 355.4 C43.9 356.72 43.23 358.05 42.58 359.4 C41.79 360.64 40.98 361.87 40.15 363.08 C39.74 363.69 39.32 364.29 38.9 364.91 C37.58 366.4 37.58 366.4 34.58 367.4 C34.25 369.05 33.92 370.7 33.58 372.4 C32.59 372.73 31.6 373.06 30.58 373.4 C30.44 374.01 30.3 374.63 30.15 375.27 C29.58 377.4 29.58 377.4 27.58 378.83 C25.33 380.27 25.33 380.27 24.83 383.08 C24.75 383.85 24.67 384.61 24.58 385.4 C23.92 385.4 23.26 385.4 22.58 385.4 C22.44 385.93 22.29 386.46 22.14 387.01 C19.85 394.6 15.96 400.84 11.58 407.4 C10.92 407.73 10.26 408.06 9.58 408.4 C8.67 409.99 7.82 411.62 7.02 413.27 C6.59 414.16 6.15 415.04 5.71 415.95 C4.51 418.45 4.51 418.45 3.58 421.4 C3.07 421.85 2.55 422.3 2.02 422.77 C0.33 424.31 0.33 424.31 0.65 426.58 C0.56 430.66 -1.09 434.06 -3.42 437.4 C-4.41 437.73 -5.4 438.06 -6.42 438.4 C-6.96 440.27 -7.48 442.14 -7.9 444.04 C-9.98 453.54 -13.72 462.44 -17.42 471.4 C-18.08 471.4 -18.74 471.4 -19.42 471.4 C-21.12 474.38 -21.67 476.66 -21.85 480.08 C-22.26 485.19 -23.59 489.63 -25.42 494.4 C-26.08 494.4 -26.74 494.4 -27.42 494.4 C-27.44 494.93 -27.47 495.47 -27.49 496.02 C-27.93 502.08 -29.19 507.7 -30.76 513.56 C-32.65 520.91 -33.88 528.37 -35.11 535.85 C-35.27 536.8 -35.42 537.75 -35.58 538.73 C-35.72 539.58 -35.86 540.43 -36 541.31 C-36.42 543.4 -36.42 543.4 -37.42 545.4 C-40.77 570.93 -41.46 598.89 -37.42 624.4 C-37.09 624.73 -36.76 625.06 -36.42 625.4 C-35.97 627.73 -35.56 630.06 -35.17 632.4 C-32.43 647.78 -27.73 662.46 -20.37 676.27 C-19.42 678.4 -19.42 678.4 -19.42 681.4 C-18.43 681.73 -17.44 682.06 -16.42 682.4 C-15.03 684.1 -15.03 684.1 -13.73 686.21 C-13.29 686.9 -12.85 687.58 -12.4 688.29 C-11.42 690.4 -11.42 690.4 -11.42 694.4 C-10.76 694.4 -10.1 694.4 -9.42 694.4 C-7.12 696.96 -6.42 697.88 -6.42 701.4 C-5.43 701.73 -4.44 702.06 -3.42 702.4 C-2.03 703.95 -2.03 703.95 -0.73 705.83 C-0.07 706.76 -0.07 706.76 0.6 707.7 C1.58 709.4 1.58 709.4 1.58 711.4 C2.17 711.65 2.75 711.91 3.35 712.18 C5.76 713.49 7.36 714.94 9.27 716.9 C9.87 717.5 10.48 718.11 11.1 718.74 C12.58 720.4 12.58 720.4 13.58 722.4 C14.24 722.4 14.9 722.4 15.58 722.4 C15.83 723.2 16.08 724 16.33 724.83 C16.75 725.68 17.16 726.52 17.58 727.4 C18.17 727.54 18.76 727.68 19.37 727.83 C22.33 728.59 23.94 730.12 26.27 732.08 C30.86 735.86 35.6 739.17 40.58 742.4 C42.94 743.99 45.29 745.59 47.64 747.2 C49.67 748.55 49.67 748.55 52.58 749.4 C55.41 750.93 58.2 752.52 60.99 754.12 C63.55 755.62 63.55 755.62 66.58 755.4 C66.58 756.06 66.58 756.72 66.58 757.4 C67.12 757.52 67.66 757.65 68.22 757.77 C71 758.5 73.68 759.41 76.4 760.33 C80.77 761.8 85.14 763.18 89.58 764.4 C89.58 765.06 89.58 765.72 89.58 766.4 C90.27 766.51 90.95 766.62 91.65 766.73 C98.53 767.85 105.39 769.09 112.24 770.43 C115.08 770.98 117.69 771.4 120.58 771.4 C120.58 772.06 120.58 772.72 120.58 773.4 C121.23 773.38 121.87 773.37 122.53 773.36 C123.39 773.35 124.26 773.34 125.15 773.33 C125.99 773.32 126.84 773.31 127.71 773.3 C130.58 773.4 130.58 773.4 133.57 773.87 C158.25 777.46 184.46 775.48 209.33 775.4 C216.23 775.37 223.13 775.35 230.03 775.34 C232.76 775.33 235.49 775.32 238.22 775.31 C239.89 775.3 241.56 775.3 243.23 775.3 C244.35 775.29 244.35 775.29 245.49 775.28 C249.94 775.28 254.22 775.51 258.58 776.4 C258.91 777.06 259.24 777.72 259.58 778.4 C259.25 779.39 258.92 780.38 258.58 781.4 C255.02 783.08 255.02 783.08 251.58 784.4 C251.58 785.06 251.58 785.72 251.58 786.4 C250.78 786.68 249.98 786.97 249.15 787.27 C246.45 788.13 246.45 788.13 245.58 790.4 C243.25 791.07 240.92 791.74 238.58 792.4 C237.92 793.06 237.26 793.72 236.58 794.4 C233.36 797.12 230.07 798.57 226.15 800.08 C224.48 800.74 224.48 800.74 222.78 801.41 C219.79 802.33 217.66 802.42 214.58 802.4 C213.92 803.06 213.26 803.72 212.58 804.4 C202.76 807.81 192.49 809.49 182.15 810.15 C179.47 810.31 179.47 810.31 176.58 811.4 C174.5 811.49 172.42 811.52 170.34 811.53 C168.41 811.53 168.41 811.53 166.44 811.53 C165.03 811.53 163.62 811.53 162.21 811.53 C160.77 811.53 159.33 811.53 157.88 811.53 C154.86 811.53 151.83 811.53 148.81 811.53 C144.93 811.52 141.06 811.52 137.18 811.53 C134.2 811.53 131.22 811.53 128.24 811.53 C126.81 811.53 125.38 811.53 123.95 811.53 C121.95 811.53 119.96 811.53 117.96 811.53 C116.82 811.52 115.68 811.52 114.51 811.52 C112 811.41 109.98 811.08 107.58 810.4 C105.57 810.22 103.54 810.08 101.52 809.96 C95.44 809.53 89.56 808.63 83.58 807.4 C84.24 806.74 84.9 806.08 85.58 805.4 C84.65 805.45 84.65 805.45 83.71 805.5 C69.17 805.95 55.53 801.37 41.82 797.08 C39.97 796.51 38.1 795.99 36.23 795.47 C20.02 790.95 4.46 783.18 -10.42 775.4 C-10.42 774.74 -10.42 774.08 -10.42 773.4 C-11.37 773.09 -11.37 773.09 -12.35 772.77 C-13.59 772.37 -13.59 772.37 -14.85 771.96 C-15.68 771.69 -16.5 771.42 -17.35 771.15 C-19.89 770.22 -20.45 769.36 -22.42 767.4 C-23.75 766.73 -25.08 766.06 -26.42 765.4 C-28.12 764.28 -29.81 763.13 -31.48 761.96 C-32.34 761.36 -33.19 760.76 -34.08 760.15 C-36.42 758.4 -36.42 758.4 -38.04 756.74 C-39.49 755.13 -39.49 755.13 -42.42 754.4 C-46 752.47 -48.6 750.31 -51.42 747.4 C-52.08 747.07 -52.74 746.74 -53.42 746.4 C-53.42 745.74 -53.42 745.08 -53.42 744.4 C-54.41 744.07 -55.4 743.74 -56.42 743.4 C-56.42 742.74 -56.42 742.08 -56.42 741.4 C-57.08 741.4 -57.74 741.4 -58.42 741.4 C-58.42 740.74 -58.42 740.08 -58.42 739.4 C-58.97 739.15 -59.53 738.91 -60.11 738.67 C-70.14 733.15 -79.26 722.2 -86.42 713.4 C-86.42 712.74 -86.42 712.08 -86.42 711.4 C-87.08 711.4 -87.74 711.4 -88.42 711.4 C-92.71 707.23 -96.21 702.43 -99.42 697.4 C-100.41 696.06 -101.41 694.72 -102.42 693.4 C-103.32 692.19 -104.21 690.98 -105.1 689.77 C-105.54 689.18 -105.98 688.59 -106.43 687.98 C-107.42 686.4 -107.42 686.4 -107.42 684.4 C-108.08 684.4 -108.74 684.4 -109.42 684.4 C-110.01 683.26 -110.01 683.26 -110.62 682.1 C-111.42 680.6 -111.42 680.6 -112.23 679.08 C-112.75 678.1 -113.27 677.11 -113.81 676.1 C-115.23 673.45 -115.23 673.45 -116.99 671.85 C-118.89 669.92 -119.45 667.93 -120.42 665.4 C-121.31 663.74 -122.21 662.08 -123.13 660.44 C-128.66 650.54 -133.37 640.12 -135.67 628.96 C-135.91 627.78 -136.16 626.61 -136.42 625.4 C-137.08 625.07 -137.74 624.74 -138.42 624.4 C-141.99 616.82 -143.68 608.55 -145.42 600.4 C-145.77 598.83 -146.12 597.27 -146.48 595.71 C-146.79 594.27 -147.1 592.83 -147.42 591.4 C-147.58 590.68 -147.74 589.96 -147.91 589.22 C-151.77 571.44 -151.79 553.57 -151.98 535.46 C-152.02 531.6 -152.07 527.74 -152.12 523.88 C-152.15 521.49 -152.18 519.11 -152.2 516.72 C-152.21 515.66 -152.23 514.59 -152.24 513.49 C-152.26 512.09 -152.26 512.09 -152.27 510.65 C-152.27 508.36 -152.27 508.36 -153.42 506.4 C-152.76 506.4 -152.1 506.4 -151.42 506.4 C-150.34 499.76 -149.89 493.1 -149.42 486.4 C-150.08 486.07 -150.74 485.74 -151.42 485.4 C-150.76 485.4 -150.1 485.4 -149.42 485.4 C-149.42 484.74 -149.42 484.08 -149.42 483.4 C-148.76 483.4 -148.1 483.4 -147.42 483.4 C-147.44 482.73 -147.46 482.07 -147.49 481.38 C-147.59 476.45 -147.39 472.96 -145.42 468.4 C-145.38 466.06 -145.37 463.73 -145.42 461.4 C-145.09 460.74 -144.76 460.08 -144.42 459.4 C-143.76 459.4 -143.1 459.4 -142.42 459.4 C-142.64 458.34 -142.87 457.29 -143.1 456.21 C-143.46 451.88 -142.86 450.84 -140.42 447.4 C-136.75 439.16 -136.75 439.16 -135.42 430.4 C-134.76 429.41 -134.1 428.42 -133.42 427.4 C-133.27 426.24 -133.13 425.09 -132.98 423.9 C-132.37 420.13 -132.03 419.8 -129.42 417.4 C-128.22 414.3 -128.22 414.3 -127.42 411.4 C-128.41 411.4 -129.4 411.4 -130.42 411.4 C-129.61 410.49 -128.81 409.58 -127.98 408.65 C-125.94 406.22 -125.06 404.52 -124.42 401.4 C-123.42 400.4 -122.42 399.4 -121.42 398.4 C-121.42 397.41 -121.42 396.42 -121.42 395.4 C-120.76 395.07 -120.1 394.74 -119.42 394.4 C-119.42 393.41 -119.42 392.42 -119.42 391.4 C-118.43 390.74 -117.44 390.08 -116.42 389.4 C-116.75 388.74 -117.08 388.08 -117.42 387.4 C-117.09 386.74 -116.76 386.08 -116.42 385.4 C-115.76 385.4 -115.1 385.4 -114.42 385.4 C-114.09 384.74 -113.76 384.08 -113.42 383.4 C-113.11 382.8 -112.8 382.2 -112.48 381.58 C-110.87 378.27 -109.58 374.89 -108.42 371.4 C-105.99 365.73 -105.99 365.73 -103.29 364.15 C-102.67 363.9 -102.05 363.65 -101.42 363.4 C-101.09 362.74 -100.76 362.08 -100.42 361.4 C-101.08 361.07 -101.74 360.74 -102.42 360.4 C-101.7 359.71 -100.98 359.01 -100.24 358.3 C-97.3 355.35 -94.72 352.19 -92.17 348.9 C-91.72 348.34 -91.27 347.78 -90.81 347.21 C-88.25 343.92 -87.12 341.46 -86.42 337.4 C-84.44 335.71 -82.44 334.04 -80.42 332.4 C-79.62 330.3 -79.62 330.3 -79.42 328.4 C-78.76 327.74 -78.1 327.08 -77.42 326.4 C-77.42 325.41 -77.42 324.42 -77.42 323.4 C-75.48 321.5 -73.39 319.89 -71.26 318.21 C-69.19 316.17 -69.07 315.14 -68.42 312.4 C-66.79 310.8 -66.79 310.8 -64.85 309.33 C-62.92 307.93 -62.92 307.93 -61.42 306.4 C-61.42 305.41 -61.42 304.42 -61.42 303.4 C-57.16 297.64 -57.16 297.64 -53.42 296.4 C-54.41 296.07 -55.4 295.74 -56.42 295.4 C-52.36 291.13 -48.45 287.47 -43.42 284.4 C-44.41 284.73 -45.4 285.06 -46.42 285.4 C-45.13 282.53 -43.84 280.42 -41.42 278.4 C-40.76 278.4 -40.1 278.4 -39.42 278.4 C-39.13 277.76 -38.84 277.12 -38.54 276.46 C-37.42 274.4 -37.42 274.4 -35.42 273.4 C-35.42 272.41 -35.42 271.42 -35.42 270.4 C-33.99 268.39 -33.99 268.39 -32.1 266.27 C-31.49 265.57 -30.87 264.86 -30.24 264.14 C-28.42 262.4 -28.42 262.4 -25.42 261.4 C-26.08 261.4 -26.74 261.4 -27.42 261.4 C-25.92 257.59 -23.65 255.8 -20.42 253.4 C-20.09 253.07 -19.76 252.74 -19.42 252.4 C-20.08 252.07 -20.74 251.74 -21.42 251.4 C-20.32 250.24 -19.21 249.1 -18.1 247.96 C-17.49 247.32 -16.87 246.68 -16.24 246.02 C-14.42 244.4 -14.42 244.4 -11.42 243.4 C-9.74 241.31 -9.74 241.31 -8.23 238.83 C-7.7 238.01 -7.17 237.18 -6.62 236.33 C-6.03 235.37 -6.03 235.37 -5.42 234.4 C-7.4 235.39 -7.4 235.39 -9.42 236.4 C-8.01 233.08 -6.4 231.32 -3.6 229.08 C1.34 224.9 5.01 220.8 6.58 214.4 C7.06 213.96 7.53 213.53 8.02 213.08 C9.9 211.31 9.9 211.31 10.58 207.83 C11.58 204.4 11.58 204.4 14.58 202.4 C18.06 196.91 19.81 191.84 20.58 185.4 C21.57 184.05 22.57 182.72 23.58 181.4 C23.58 180.59 23.58 179.79 23.58 178.96 C23.58 175.65 24.77 174.12 26.58 171.4 C28.26 168.46 28.88 166.13 29.15 162.77 C29.49 158.59 29.49 158.59 30.58 156.4 C29.92 156.07 29.26 155.74 28.58 155.4 C29.24 155.07 29.9 154.74 30.58 154.4 C30.63 150.36 30.67 146.33 30.69 142.29 C30.7 140.93 30.72 139.56 30.74 138.19 C31.05 112.73 23.35 88.21 9.84 66.6 C8.58 64.4 8.58 64.4 8.58 61.4 C7.92 61.4 7.26 61.4 6.58 61.4 C4.98 59.51 3.49 57.63 2.02 55.65 C1.58 55.06 1.14 54.48 0.68 53.87 C-1.51 50.97 -3.68 48.04 -5.83 45.11 C-9.64 39.94 -13.39 35.08 -18.1 30.7 C-19.42 29.4 -19.42 29.4 -20.42 27.4 C-21.38 26.63 -22.35 25.87 -23.35 25.08 C-26.15 22.83 -27.41 20.91 -28.42 17.4 C-29.08 17.4 -29.74 17.4 -30.42 17.4 C-31.75 15.82 -31.75 15.82 -33.23 13.71 C-36.33 9.43 -39.78 5.85 -43.73 2.33 C-45.42 0.4 -45.42 0.4 -45.42 -3.6 C-33.56 -9.53 -12.03 -3.19 0 0 Z M188.58 133.4 C189.58 135.4 189.58 135.4 189.58 135.4 Z M202.58 152.4 C203.58 154.4 203.58 154.4 203.58 154.4 Z M207.58 159.4 C208.58 161.4 208.58 161.4 208.58 161.4 Z M239.58 214.4 C240.58 217.4 240.58 217.4 240.58 217.4 Z M247.58 228.4 C248.58 231.4 248.58 231.4 248.58 231.4 Z M249.58 233.4 C250.58 235.4 250.58 235.4 250.58 235.4 Z M256.58 248.4 C257.58 250.4 257.58 250.4 257.58 250.4 Z M258.58 253.4 C259.58 256.4 259.58 256.4 259.58 256.4 Z M263.58 266.4 C264.58 269.4 264.58 269.4 264.58 269.4 Z M264.58 270.4 C265.58 272.4 265.58 272.4 265.58 272.4 Z M111.58 275.4 C111.25 276.39 110.92 277.38 110.58 278.4 C111.24 278.4 111.9 278.4 112.58 278.4 C112.25 277.41 111.92 276.42 111.58 275.4 Z M267.58 276.4 C268.58 278.4 268.58 278.4 268.58 278.4 Z M268.58 278.4 C269.58 280.4 269.58 280.4 269.58 280.4 Z M272.58 291.4 C273.58 293.4 273.58 293.4 273.58 293.4 Z M274.58 296.4 C274.58 298.38 274.58 300.36 274.58 302.4 C274.91 302.4 275.24 302.4 275.58 302.4 C275.58 300.42 275.58 298.44 275.58 296.4 C275.25 296.4 274.92 296.4 274.58 296.4 Z M276.58 305.4 C277.58 308.4 277.58 308.4 277.58 308.4 Z M277.58 308.4 C278.58 312.4 278.58 312.4 278.58 312.4 Z M279.58 315.4 C279.58 317.38 279.58 319.36 279.58 321.4 C279.91 321.4 280.24 321.4 280.58 321.4 C280.58 319.42 280.58 317.44 280.58 315.4 C280.25 315.4 279.92 315.4 279.58 315.4 Z M281.58 324.4 C281.58 326.38 281.58 328.36 281.58 330.4 C281.91 330.4 282.24 330.4 282.58 330.4 C282.58 328.42 282.58 326.44 282.58 324.4 C282.25 324.4 281.92 324.4 281.58 324.4 Z M283.58 335.4 C284.58 338.4 284.58 338.4 284.58 338.4 Z M284.58 338.4 C285.58 340.4 285.58 340.4 285.58 340.4 Z M283.58 340.4 C284.58 342.4 284.58 342.4 284.58 342.4 Z M284.58 342.4 C285.58 344.4 285.58 344.4 285.58 344.4 Z M286.58 347.4 C286.58 349.71 286.58 352.02 286.58 354.4 C286.91 354.4 287.24 354.4 287.58 354.4 C287.58 352.09 287.58 349.78 287.58 347.4 C287.25 347.4 286.92 347.4 286.58 347.4 Z M288.58 357.4 C288.58 360.7 288.58 364 288.58 367.4 C288.91 367.4 289.24 367.4 289.58 367.4 C289.58 364.1 289.58 360.8 289.58 357.4 C289.25 357.4 288.92 357.4 288.58 357.4 Z M-105.42 367.4 C-105.75 368.72 -106.08 370.04 -106.42 371.4 C-105.76 370.08 -105.1 368.76 -104.42 367.4 C-104.75 367.4 -105.08 367.4 -105.42 367.4 Z M290.58 370.4 C290.58 374.69 290.58 378.98 290.58 383.4 C290.91 383.4 291.24 383.4 291.58 383.4 C291.58 379.11 291.58 374.82 291.58 370.4 C291.25 370.4 290.92 370.4 290.58 370.4 Z M291.58 383.4 C292.58 387.4 292.58 387.4 292.58 387.4 Z M-115.42 386.4 C-114.42 388.4 -114.42 388.4 -114.42 388.4 Z M292.58 389.4 C292.58 393.03 292.58 396.66 292.58 400.4 C292.91 400.4 293.24 400.4 293.58 400.4 C293.58 396.77 293.58 393.14 293.58 389.4 C293.25 389.4 292.92 389.4 292.58 389.4 Z M17.58 391.4 C18.58 393.4 18.58 393.4 18.58 393.4 Z M15.58 394.4 C16.58 397.4 16.58 397.4 16.58 397.4 Z M292.58 405.4 C292.58 408.04 292.58 410.68 292.58 413.4 C292.91 413.4 293.24 413.4 293.58 413.4 C293.58 410.76 293.58 408.12 293.58 405.4 C293.25 405.4 292.92 405.4 292.58 405.4 Z M292.58 414.4 C292.58 417.04 292.58 419.68 292.58 422.4 C292.91 422.4 293.24 422.4 293.58 422.4 C293.58 419.76 293.58 417.12 293.58 414.4 C293.25 414.4 292.92 414.4 292.58 414.4 Z M291.58 423.4 C291.58 425.71 291.58 428.02 291.58 430.4 C291.91 430.4 292.24 430.4 292.58 430.4 C292.58 428.09 292.58 425.78 292.58 423.4 C292.25 423.4 291.92 423.4 291.58 423.4 Z M-1.42 426.4 C-0.42 428.4 -0.42 428.4 -0.42 428.4 Z M290.58 430.4 C290.58 433.04 290.58 435.68 290.58 438.4 C290.91 438.4 291.24 438.4 291.58 438.4 C291.58 435.76 291.58 433.12 291.58 430.4 C291.25 430.4 290.92 430.4 290.58 430.4 Z M289.58 439.4 C290.58 442.4 290.58 442.4 290.58 442.4 Z M288.58 442.4 C288.58 444.05 288.58 445.7 288.58 447.4 C288.91 447.4 289.24 447.4 289.58 447.4 C289.58 445.75 289.58 444.1 289.58 442.4 C289.25 442.4 288.92 442.4 288.58 442.4 Z M-12.42 449.4 C-11.42 452.4 -11.42 452.4 -11.42 452.4 Z M286.58 450.4 C287.58 453.4 287.58 453.4 287.58 453.4 Z M-13.42 452.4 C-12.42 456.4 -12.42 456.4 -12.42 456.4 Z M284.58 456.4 C284.25 458.05 283.92 459.7 283.58 461.4 C284.57 461.89 284.57 461.89 285.58 462.4 C285.58 460.42 285.58 458.44 285.58 456.4 C285.25 456.4 284.92 456.4 284.58 456.4 Z M-15.42 459.4 C-14.42 461.4 -14.42 461.4 -14.42 461.4 Z M-17.42 463.4 C-16.42 466.4 -16.42 466.4 -16.42 466.4 Z M282.58 464.4 C283.58 467.4 283.58 467.4 283.58 467.4 Z M-18.42 466.4 C-17.42 468.4 -17.42 468.4 -17.42 468.4 Z M279.58 470.4 C280.58 474.4 280.58 474.4 280.58 474.4 Z M-24.42 481.4 C-23.42 484.4 -23.42 484.4 -23.42 484.4 Z M-26.42 486.4 C-25.42 489.4 -25.42 489.4 -25.42 489.4 Z M-29.42 496.4 C-28.42 498.4 -28.42 498.4 -28.42 498.4 Z M-31.42 500.4 C-31.42 502.71 -31.42 505.02 -31.42 507.4 C-31.09 507.4 -30.76 507.4 -30.42 507.4 C-30.42 505.09 -30.42 502.78 -30.42 500.4 C-30.75 500.4 -31.08 500.4 -31.42 500.4 Z M-32.42 507.4 C-31.42 510.4 -31.42 510.4 -31.42 510.4 Z M-33.42 512.4 C-32.42 515.4 -32.42 515.4 -32.42 515.4 Z M-34.42 515.4 C-33.42 519.4 -33.42 519.4 -33.42 519.4 Z M252.58 515.4 C253.58 517.4 253.58 517.4 253.58 517.4 Z M-35.42 520.4 C-34.42 523.4 -34.42 523.4 -34.42 523.4 Z M-36.42 523.4 C-36.42 526.04 -36.42 528.68 -36.42 531.4 C-36.09 531.4 -35.76 531.4 -35.42 531.4 C-35.42 528.76 -35.42 526.12 -35.42 523.4 C-35.75 523.4 -36.08 523.4 -36.42 523.4 Z M-38.42 533.4 C-38.42 536.37 -38.42 539.34 -38.42 542.4 C-38.09 542.4 -37.76 542.4 -37.42 542.4 C-37.42 539.43 -37.42 536.46 -37.42 533.4 C-37.75 533.4 -38.08 533.4 -38.42 533.4 Z M-40.42 543.4 C-40.09 544.72 -39.76 546.04 -39.42 547.4 C-39.09 546.08 -38.76 544.76 -38.42 543.4 C-39.08 543.4 -39.74 543.4 -40.42 543.4 Z M-40.42 548.4 C-40.42 551.04 -40.42 553.68 -40.42 556.4 C-40.09 556.4 -39.76 556.4 -39.42 556.4 C-39.42 553.76 -39.42 551.12 -39.42 548.4 C-39.75 548.4 -40.08 548.4 -40.42 548.4 Z M-41.42 556.4 C-41.42 561.02 -41.42 565.64 -41.42 570.4 C-41.09 570.4 -40.76 570.4 -40.42 570.4 C-40.42 565.78 -40.42 561.16 -40.42 556.4 C-40.75 556.4 -41.08 556.4 -41.42 556.4 Z M174.58 565.4 C174.58 565.73 174.58 566.06 174.58 566.4 C176.89 566.4 179.2 566.4 181.58 566.4 C181.58 566.07 181.58 565.74 181.58 565.4 C179.27 565.4 176.96 565.4 174.58 565.4 Z M165.58 568.4 C169.58 569.4 169.58 569.4 169.58 569.4 Z M-42.42 571.4 C-41.42 574.4 -41.42 574.4 -41.42 574.4 Z M-43.42 574.4 C-43.42 576.38 -43.42 578.36 -43.42 580.4 C-43.09 580.4 -42.76 580.4 -42.42 580.4 C-42.42 578.42 -42.42 576.44 -42.42 574.4 C-42.75 574.4 -43.08 574.4 -43.42 574.4 Z M-43.42 581.4 C-42.42 583.4 -42.42 583.4 -42.42 583.4 Z M-43.42 585.4 C-42.42 589.4 -42.42 589.4 -42.42 589.4 Z M-43.42 592.4 C-43.42 595.04 -43.42 597.68 -43.42 600.4 C-43.09 600.4 -42.76 600.4 -42.42 600.4 C-42.42 597.76 -42.42 595.12 -42.42 592.4 C-42.75 592.4 -43.08 592.4 -43.42 592.4 Z M-41.42 603.4 C-41.42 606.7 -41.42 610 -41.42 613.4 C-41.09 613.4 -40.76 613.4 -40.42 613.4 C-40.42 610.1 -40.42 606.8 -40.42 603.4 C-40.75 603.4 -41.08 603.4 -41.42 603.4 Z M-40.42 613.4 C-39.42 617.4 -39.42 617.4 -39.42 617.4 Z M-41.42 617.4 C-41.42 619.38 -41.42 621.36 -41.42 623.4 C-41.09 623.4 -40.76 623.4 -40.42 623.4 C-40.42 621.42 -40.42 619.44 -40.42 617.4 C-40.75 617.4 -41.08 617.4 -41.42 617.4 Z M-38.42 626.4 C-38.42 629.04 -38.42 631.68 -38.42 634.4 C-38.09 634.4 -37.76 634.4 -37.42 634.4 C-37.42 631.76 -37.42 629.12 -37.42 626.4 C-37.75 626.4 -38.08 626.4 -38.42 626.4 Z M-36.42 638.4 C-36.42 640.38 -36.42 642.36 -36.42 644.4 C-36.09 644.4 -35.76 644.4 -35.42 644.4 C-35.42 642.42 -35.42 640.44 -35.42 638.4 C-35.75 638.4 -36.08 638.4 -36.42 638.4 Z M-34.42 647.4 C-33.42 650.4 -33.42 650.4 -33.42 650.4 Z M-32.42 654.4 C-31.76 655.72 -31.1 657.04 -30.42 658.4 C-30.42 657.08 -30.42 655.76 -30.42 654.4 C-31.08 654.4 -31.74 654.4 -32.42 654.4 Z M-29.42 661.4 C-28.42 665.4 -28.42 665.4 -28.42 665.4 Z M-27.42 667.4 C-26.42 669.4 -26.42 669.4 -26.42 669.4 Z M-24.42 673.4 C-23.42 675.4 -23.42 675.4 -23.42 675.4 Z M-23.42 677.4 C-22.76 678.06 -22.1 678.72 -21.42 679.4 C-21.42 678.74 -21.42 678.08 -21.42 677.4 C-22.08 677.4 -22.74 677.4 -23.42 677.4 Z M-18.42 683.4 C-18.09 684.39 -17.76 685.38 -17.42 686.4 C-17.42 685.41 -17.42 684.42 -17.42 683.4 C-17.75 683.4 -18.08 683.4 -18.42 683.4 Z M-13.42 691.4 C-12.42 693.4 -12.42 693.4 -12.42 693.4 Z M-8.42 698.4 C-7.42 700.4 -7.42 700.4 -7.42 700.4 Z M-1.42 707.4 C-0.42 709.4 -0.42 709.4 -0.42 709.4 Z M26.58 790.4 C30.58 791.4 30.58 791.4 30.58 791.4 Z M41.58 795.4 C41.58 795.73 41.58 796.06 41.58 796.4 C43.23 796.4 44.88 796.4 46.58 796.4 C46.58 796.07 46.58 795.74 46.58 795.4 C44.93 795.4 43.28 795.4 41.58 795.4 Z M49.58 797.4 C53.58 798.4 53.58 798.4 53.58 798.4 Z M61.58 800.4 C61.58 800.73 61.58 801.06 61.58 801.4 C63.56 801.4 65.54 801.4 67.58 801.4 C67.58 801.07 67.58 800.74 67.58 800.4 C65.6 800.4 63.62 800.4 61.58 800.4 Z M70.58 802.4 C70.58 802.73 70.58 803.06 70.58 803.4 C72.56 803.4 74.54 803.4 76.58 803.4 C76.58 803.07 76.58 802.74 76.58 802.4 C74.6 802.4 72.62 802.4 70.58 802.4 Z M206.58 802.4 C206.58 802.73 206.58 803.06 206.58 803.4 C208.56 803.4 210.54 803.4 212.58 803.4 C212.58 803.07 212.58 802.74 212.58 802.4 C210.6 802.4 208.62 802.4 206.58 802.4 Z M199.58 804.4 C203.58 805.4 203.58 805.4 203.58 805.4 Z M193.58 805.4 C193.58 805.73 193.58 806.06 193.58 806.4 C195.56 806.4 197.54 806.4 199.58 806.4 C199.58 806.07 199.58 805.74 199.58 805.4 C197.6 805.4 195.62 805.4 193.58 805.4 Z M93.58 806.4 C97.58 807.4 97.58 807.4 97.58 807.4 Z M97.58 807.4 C97.58 807.73 97.58 808.06 97.58 808.4 C100.55 808.4 103.52 808.4 106.58 808.4 C106.58 808.07 106.58 807.74 106.58 807.4 C103.61 807.4 100.64 807.4 97.58 807.4 Z M177.58 807.4 C177.58 807.73 177.58 808.06 177.58 808.4 C181.54 808.4 185.5 808.4 189.58 808.4 C189.58 808.07 189.58 807.74 189.58 807.4 C185.62 807.4 181.66 807.4 177.58 807.4 Z M115.58 809.4 C115.58 809.73 115.58 810.06 115.58 810.4 C124.82 810.4 134.06 810.4 143.58 810.4 C143.58 810.07 143.58 809.74 143.58 809.4 C134.34 809.4 125.1 809.4 115.58 809.4 Z M144.58 809.4 C144.58 809.73 144.58 810.06 144.58 810.4 C154.48 810.4 164.38 810.4 174.58 810.4 C174.58 810.07 174.58 809.74 174.58 809.4 C164.68 809.4 154.78 809.4 144.58 809.4 Z " fill="#EA862A" transform="translate(413.41552734375,236.60400390625)"/>
<path d="M0 0 C13 8.49 13 8.49 16 13 C18.23 15.29 20.52 17.52 22.81 19.75 C28 25.09 28 25.09 28 28 C28.66 28 29.32 28 30 28 C31.73 30.12 31.73 30.12 33.62 32.88 C34.57 34.23 34.57 34.23 35.54 35.62 C37 38 37 38 37 40 C37.66 40 38.32 40 39 40 C41.01 42.33 42.02 44.05 43 47 C43.33 47.66 43.66 48.32 44 49 C44.66 49 45.32 49 46 49 C49 53.38 49 53.38 49 56 C49.66 56 50.32 56 51 56 C51 56.99 51 57.98 51 59 C51.66 59 52.32 59 53 59 C53.46 60.21 53.46 60.21 53.94 61.44 C54.76 63.89 54.76 63.89 56 65 C57.35 66.76 58.68 68.53 60 70.31 C60.72 71.28 61.44 72.24 62.19 73.24 C63.77 75.64 64.57 77.2 65 80 C65.66 80 66.32 80 67 80 C68.52 82.98 69.94 85.82 71 89 C72.07 91.48 73.22 93.27 74.94 95.38 C77.77 98.98 79.56 102.67 81 107 C81.45 107.41 81.91 107.83 82.38 108.25 C84.73 110.79 85.64 113.83 87 117 C87.98 118.02 88.98 119.02 90 120 C90.35 121.33 90.69 122.66 91 124 C91.66 124.33 92.32 124.66 93 125 C94.29 127.28 95.48 129.53 96.62 131.88 C96.95 132.51 97.27 133.15 97.61 133.81 C99.06 136.72 100 138.7 100 142 C100.66 142 101.32 142 102 142 C102.43 143.01 102.87 144.02 103.31 145.06 C103.59 145.7 103.86 146.34 104.14 146.99 C104.7 148.29 105.25 149.58 105.8 150.88 C107.11 153.97 108.46 157.02 110 160 C110.5 161.01 110.99 162.02 111.5 163.06 C112.97 166.08 112.97 166.08 115 169 C118.31 176.09 121.21 183.19 123.3 190.74 C123.99 192.96 124.86 194.91 125.88 197 C129.01 203.7 130.62 211.01 132.49 218.15 C132.94 219.78 133.46 221.39 134 223 C134 223.66 134 224.32 134 225 C134.33 225 134.66 225 135 225 C137.23 230.9 138.3 237.01 139.5 243.19 C139.82 244.8 139.82 244.8 140.14 246.44 C140.77 249.62 141.39 252.81 142 256 C142.19 256.99 142.38 257.99 142.58 259.01 C143.52 263.99 144.27 268.87 144.56 273.94 C144.75 277.91 144.75 277.91 145.51 281.79 C146.14 284.63 146.13 287.27 146.13 290.17 C146.13 291.42 146.14 292.67 146.14 293.96 C146.14 295.31 146.14 296.67 146.13 298.03 C146.13 299.43 146.13 300.83 146.14 302.22 C146.14 305.15 146.14 308.07 146.13 311 C146.12 314.74 146.13 318.49 146.13 322.24 C146.14 325.12 146.14 328 146.13 330.89 C146.13 332.27 146.13 333.65 146.14 335.03 C146.14 336.96 146.13 338.89 146.13 340.83 C146.13 342.47 146.13 342.47 146.13 344.15 C146.02 346.63 145.67 348.63 145 351 C144.85 352.91 144.73 354.83 144.62 356.75 C143.85 367.47 141.75 377.96 138.75 388.27 C137.88 391.43 137.23 394.61 136.56 397.81 C135.47 402.73 133.84 405.83 131 410 C130.39 412.99 130.14 415.95 130 419 C129.34 419 128.68 419 128 419 C128.03 420.11 128.03 420.11 128.06 421.25 C127.95 426.28 126.96 428.04 123.44 431.56 C121.59 434.69 121.59 437.32 121.31 440.89 C120.91 443.61 119.85 445 118 447 C117.32 448.33 116.65 449.66 116 451 C115.34 451.99 114.68 452.98 114 454 C113.13 455.45 112.28 456.91 111.44 458.38 C111 459.13 110.57 459.88 110.12 460.65 C108.95 463.11 108.53 465.34 108 468 C107.36 468.78 106.72 469.57 106.06 470.38 C103.75 472.98 103.75 472.98 102.94 476.75 C102.63 477.82 102.32 478.89 102 480 C101.01 480.33 100.02 480.66 99 481 C99 481.99 99 482.98 99 484 C98.34 484 97.68 484 97 484 C96.36 485.11 95.72 486.23 95.06 487.38 C94.7 488 94.34 488.63 93.97 489.27 C93.28 490.5 92.63 491.74 92 493 C91.34 493.99 90.68 494.98 90 496 C89.73 496.62 89.46 497.24 89.19 497.88 C86.45 502.77 81.7 506.14 77.36 509.57 C75.66 511.03 75.66 511.03 76 514 C73.5 516.19 73.5 516.19 71 518 C70.67 517.67 70.34 517.34 70 517 C67.38 519.27 66.11 520.63 65.12 524 C63.64 527.95 61.65 529.03 58 531 C57.34 531 56.68 531 56 531 C53.53 533.28 51.35 535.49 49.44 538.25 C47.73 540.33 46.62 540.64 44 541 C44 541.66 44 542.32 44 543 C43.28 543.25 42.56 543.5 41.81 543.75 C38.74 545.12 36.59 546.88 34 549 C32.68 549.7 31.35 550.37 30 551 C27.03 552.91 27.03 552.91 24.56 555 C21.18 557.64 19.36 559.03 15 558.94 C10.61 559.03 8.98 561.02 6 564 C1.49 566.17 -2.64 566.39 -7.57 566.66 C-10.18 566.78 -10.18 566.78 -12 569 C-18.51 575.51 -31.19 576.24 -40.04 577.68 C-41.81 577.97 -43.57 578.3 -45.34 578.63 C-63.25 581.61 -83.17 581.52 -101 578 C-101.81 577.84 -102.63 577.69 -103.46 577.53 C-105.66 577.07 -107.83 576.54 -110 576 C-110.93 575.78 -111.86 575.57 -112.82 575.35 C-119.75 573.71 -126.36 571.57 -133 569 C-133 568.34 -133 567.68 -133 567 C-133.63 566.94 -134.25 566.88 -134.9 566.82 C-135.72 566.73 -136.53 566.65 -137.38 566.56 C-138.19 566.48 -139 566.4 -139.84 566.32 C-143.43 565.79 -146.03 563.89 -148.69 561.44 C-151.41 559.75 -153.63 559.72 -156.77 559.44 C-161.73 558.46 -166.45 555.55 -170 552 C-171.65 551.3 -173.32 550.63 -175 550 C-177 549 -177 549 -178 546 C-179.98 545.28 -181.98 544.62 -184 544 C-184.66 543.34 -185.32 542.68 -186 542 C-186.99 541.67 -187.98 541.34 -189 541 C-191.07 539.73 -193.11 538.41 -195.12 537.06 C-196.2 536.35 -197.28 535.64 -198.38 534.91 C-201 533 -201 533 -202 531 C-202.82 530.67 -203.65 530.34 -204.5 530 C-207 529 -207 529 -208 527 C-208.99 526.67 -209.98 526.34 -211 526 C-211 525.34 -211 524.68 -211 524 C-211.66 524 -212.32 524 -213 524 C-213 523.34 -213 522.68 -213 522 C-213.52 521.77 -214.03 521.55 -214.56 521.31 C-217.37 519.8 -219.85 518.01 -222.41 516.12 C-224.01 514.93 -224.01 514.93 -226 514 C-226 513.34 -226 512.68 -226 512 C-226.68 511.81 -227.36 511.63 -228.06 511.44 C-232.14 509.44 -235.13 506.5 -238 503 C-238 502.34 -238 501.68 -238 501 C-238.66 501 -239.32 501 -240 501 C-245.56 484.29 -245.56 484.29 -246 476 C-244.35 475.34 -242.7 474.68 -241 474 C-240.67 474.33 -240.34 474.66 -240 475 C-234.88 475.74 -229.71 476.13 -224.56 476.56 C-223.75 476.63 -222.94 476.7 -222.11 476.77 C-205.33 478.12 -188.57 478.31 -171.75 478.31 C-169.89 478.32 -169.89 478.32 -167.98 478.32 C-155.16 478.34 -142.5 478.21 -129.78 476.48 C-124.54 475.82 -119.32 475.57 -114.04 475.34 C-111.17 475.02 -109.44 474.49 -107 473 C-107 473.66 -107 474.32 -107 475 C-106.34 474.67 -105.68 474.34 -105 474 C-103.09 473.61 -101.17 473.26 -99.25 472.94 C-98.22 472.76 -97.2 472.58 -96.14 472.4 C-93.05 472.01 -90.11 471.93 -87 472 C-86.34 470.68 -85.68 469.36 -85 468 C-83.95 468.19 -82.9 468.37 -81.81 468.56 C-77.58 469.05 -74.73 468.97 -71 466.88 C-68.35 465.72 -66.73 466.24 -64 467 C-64 466.34 -64 465.68 -64 465 C-60.52 463.84 -58.54 464.29 -55 465 C-55 464.34 -55 463.68 -55 463 C-52 462 -52 462 -49 463 C-48.67 462.34 -48.34 461.68 -48 461 C-46.21 460.47 -46.21 460.47 -43.94 460.06 C-39.42 459.14 -35.27 457.72 -31 456 C-29.79 455.53 -28.58 455.06 -27.34 454.58 C-26 454.05 -24.65 453.53 -23.31 453 C-22.67 452.75 -22.03 452.5 -21.37 452.25 C-17.68 450.78 -14.39 449.05 -11 447 C-10.34 447 -9.68 447 -9 447 C-9 446.34 -9 445.68 -9 445 C-8.23 444.87 -8.23 444.87 -7.44 444.74 C-4 443.7 -1.03 441.92 2.06 440.12 C2.69 439.77 3.31 439.42 3.96 439.06 C7.01 437.3 9.62 435.6 12 433 C13.33 432.32 14.66 431.65 16 431 C16.66 430.34 17.32 429.68 18 429 C19.65 428.29 21.32 427.62 23 427 C22.67 426.34 22.34 425.68 22 425 C22.89 424.61 23.77 424.22 24.69 423.81 C28.12 421.93 30.29 419.79 33 417 C33.66 417 34.32 417 35 417 C35 416.34 35 415.68 35 415 C35.85 414.48 36.69 413.97 37.56 413.44 C41.49 411 43.82 407.54 46.48 403.83 C46.98 403.22 47.48 402.62 48 402 C48.66 402 49.32 402 50 402 C50 401.01 50 400.02 50 399 C49.01 399.66 48.02 400.32 47 401 C48.32 397.43 50.49 395.62 53.42 393.28 C61.53 386.72 66.25 378.62 70 369 C70.15 366.93 70.15 366.93 69 365 C69.66 365 70.32 365 71 365 C71.33 364.34 71.66 363.68 72 363 C72.66 362.34 73.32 361.68 74 361 C74.73 358.96 75.39 356.89 76 354.81 C76.35 353.65 76.69 352.48 77.05 351.28 C77.36 350.2 77.68 349.11 78 348 C78.23 347.24 78.46 346.48 78.7 345.69 C79.51 343 80 340.84 80 338 C80.33 338 80.66 338 81 338 C81.33 335.03 81.66 332.06 82 329 C82.66 329 83.32 329 84 329 C84.33 326.69 84.66 324.38 85 322 C84.34 321.67 83.68 321.34 83 321 C84.32 320.34 85.64 319.68 87 319 C86.86 318.06 86.86 318.06 86.71 317.09 C86.6 316.24 86.49 315.38 86.38 314.5 C86.2 313.25 86.2 313.25 86.02 311.97 C86 309 86 309 86.98 305.35 C88.11 300.98 88.27 296.9 88.23 292.41 C88.23 291.62 88.23 290.82 88.23 290.01 C88.23 288.35 88.22 286.69 88.21 285.03 C88.19 282.51 88.19 279.99 88.19 277.46 C88.18 275.84 88.17 274.22 88.17 272.59 C88.17 271.48 88.17 271.48 88.16 270.34 C88.12 265.48 87.65 260.82 87 256 C86.94 253.67 86.91 251.33 86.94 249 C86.95 247.87 86.96 246.73 86.96 245.56 C86.98 244.29 86.98 244.29 87 243 C86.34 242.67 85.68 242.34 85 242 C84.44 239.75 84.44 239.75 84 236.79 C83.84 235.71 83.67 234.63 83.5 233.51 C83.34 232.37 83.17 231.24 83 230.06 C81.48 219.9 79.96 209.86 77 200 C76.15 196.7 75.4 193.38 74.64 190.06 C73.26 184.04 71.87 178.09 69.79 172.26 C68.35 168.15 67.14 163.98 65.87 159.82 C65.27 157.87 64.64 155.93 64 154 C64 152.68 64 151.36 64 150 C63.34 149.67 62.68 149.34 62 149 C61.31 147.01 60.64 145.01 60 143 C59.53 142.09 59.05 141.18 58.56 140.25 C57.29 137.61 56.47 135.36 55.69 132.56 C52.79 122.47 48.35 112.82 44.28 103.16 C43.33 100.81 42.43 98.47 41.57 96.09 C38.92 88.78 36.17 81.95 32.2 75.23 C31.06 73.12 30.58 71.31 30 69 C29.34 68.34 28.68 67.68 28 67 C27.32 65 26.66 63 26 61 C24.87 58.55 23.72 56.15 22.5 53.75 C22.15 53.06 21.81 52.37 21.45 51.66 C18.35 45.54 14.98 39.58 11.59 33.61 C8.31 27.74 5.62 21.78 3.16 15.53 C2.26 12.87 2.26 12.87 0 12 C-0.56 9.81 -0.56 9.81 -1 7 C-1.19 5.91 -1.37 4.81 -1.56 3.69 C-1.78 2.36 -1.78 2.36 -2 1 C-1.34 0.67 -0.68 0.34 0 0 Z M51 60 C52 62 52 62 52 62 Z M81 109 C82 111 82 111 82 111 Z M91 126 C92 128 92 128 92 128 Z M93 130 C94 132 94 132 94 132 Z M95 134 C96 136 96 136 96 136 Z M97 137 C98 140 98 140 98 140 Z M99 144 C99.66 144.66 100.32 145.32 101 146 C101 145.34 101 144.68 101 144 C100.34 144 99.68 144 99 144 Z M114 172 C115 174 115 174 115 174 Z M118 181 C119 184 119 184 119 184 Z M119 184 C120 187 120 187 120 187 Z M121 190 C122 193 122 193 122 193 Z M123 196 C124 199 124 199 124 199 Z M127 206 C128 210 128 210 128 210 Z M128 210 C129 214 129 214 129 214 Z M130 218 C131 220 131 220 131 220 Z M135 233 C136 237 136 237 136 237 Z M137 242 C137 244.64 137 247.28 137 250 C137.33 250 137.66 250 138 250 C138 247.36 138 244.72 138 242 C137.67 242 137.34 242 137 242 Z M139 253 C139 255.64 139 258.28 139 261 C139.33 261 139.66 261 140 261 C140 258.36 140 255.72 140 253 C139.67 253 139.34 253 139 253 Z M140 261 C141 265 141 265 141 265 Z M141 266 C141 268.31 141 270.62 141 273 C141.33 273 141.66 273 142 273 C142 270.69 142 268.38 142 266 C141.67 266 141.34 266 141 266 Z M142 273 C142 276.3 142 279.6 142 283 C142.33 283 142.66 283 143 283 C143 279.7 143 276.4 143 273 C142.67 273 142.34 273 142 273 Z M144 288 C144 298.23 144 308.46 144 319 C144.33 319 144.66 319 145 319 C145 308.77 145 298.54 145 288 C144.67 288 144.34 288 144 288 Z M144 321 C144 327.93 144 334.86 144 342 C144.33 342 144.66 342 145 342 C145 335.07 145 328.14 145 321 C144.67 321 144.34 321 144 321 Z M143 343 C144 347 144 347 144 347 Z M142 348 C142 350.97 142 353.94 142 357 C142.33 357 142.66 357 143 357 C143 354.03 143 351.06 143 348 C142.67 348 142.34 348 142 348 Z M141 357 C142 361 142 361 142 361 Z M141 362 C142 365 142 365 142 365 Z M140 366 C140 367.65 140 369.3 140 371 C140.33 371 140.66 371 141 371 C141 369.35 141 367.7 141 366 C140.67 366 140.34 366 140 366 Z M139 371 C139 373.31 139 375.62 139 378 C139.33 378 139.66 378 140 378 C140 375.69 140 373.38 140 371 C139.67 371 139.34 371 139 371 Z M138 379 C139 382 139 382 139 382 Z M137 382 C137 383.65 137 385.3 137 387 C137.33 387 137.66 387 138 387 C138 385.35 138 383.7 138 382 C137.67 382 137.34 382 137 382 Z M136 388 C137 390 137 390 137 390 Z M135 390 C135 391.98 135 393.96 135 396 C135.33 396 135.66 396 136 396 C136 394.02 136 392.04 136 390 C135.67 390 135.34 390 135 390 Z M133 399 C134 402 134 402 134 402 Z M132 402 C133 406 133 406 133 406 Z M125 425 C126 427 126 427 126 427 Z M119 441 C120 443 120 443 120 443 Z M74 509 C75 511 75 511 75 511 Z M59 526 C60 528 60 528 60 528 Z M-25 571 C-21 572 -21 572 -21 572 Z M-115 572 C-115 572.66 -115 573.32 -115 574 C-111.7 574 -108.4 574 -105 574 C-105 573.67 -105 573.34 -105 573 C-108.3 572.67 -111.6 572.34 -115 572 Z M-36 573 C-36 573.33 -36 573.66 -36 574 C-33.03 574 -30.06 574 -27 574 C-27 573.67 -27 573.34 -27 573 C-29.97 573 -32.94 573 -36 573 Z M-102 575 C-102 575.33 -102 575.66 -102 576 C-99.69 576 -97.38 576 -95 576 C-95 575.67 -95 575.34 -95 575 C-97.31 575 -99.62 575 -102 575 Z M-44 575 C-44 575.33 -44 575.66 -44 576 C-42.35 576 -40.7 576 -39 576 C-39 575.67 -39 575.34 -39 575 C-40.65 575 -42.3 575 -44 575 Z M-95 576 C-95 576.33 -95 576.66 -95 577 C-93.35 577 -91.7 577 -90 577 C-90 576.67 -90 576.34 -90 576 C-91.65 576 -93.3 576 -95 576 Z M-53 576 C-53 576.33 -53 576.66 -53 577 C-50.03 577 -47.06 577 -44 577 C-44 576.67 -44 576.34 -44 576 C-46.97 576 -49.94 576 -53 576 Z M-88 577 C-88 577.33 -88 577.66 -88 578 C-84.7 578 -81.4 578 -78 578 C-78 577.67 -78 577.34 -78 577 C-81.3 577 -84.6 577 -88 577 Z M-69 577 C-69 577.33 -69 577.66 -69 578 C-64.38 578 -59.76 578 -55 578 C-55 577.67 -55 577.34 -55 577 C-59.62 577 -64.24 577 -69 577 Z " fill="#EA872B" transform="translate(644,408)"/>
<path d="M0 0 C1.27 0.04 1.27 0.04 2.57 0.09 C26.08 0.9 49.57 1.13 73.1 1.07 C77.51 1.06 81.92 1.05 86.34 1.05 C94.89 1.04 103.45 1.02 112 1 C112 1.99 112 2.98 112 4 C101.21 4.02 90.43 4.04 79.64 4.05 C74.63 4.06 69.62 4.06 64.61 4.08 C59.78 4.09 54.95 4.09 50.12 4.09 C48.27 4.1 46.43 4.1 44.58 4.11 C42 4.11 39.43 4.11 36.85 4.11 C35.69 4.12 35.69 4.12 34.52 4.12 C29.23 4.11 29.23 4.11 27 3 C25.04 2.85 23.08 2.75 21.12 2.68 C19.95 2.64 18.78 2.6 17.58 2.56 C16.36 2.52 15.14 2.48 13.88 2.44 C12.64 2.39 11.41 2.35 10.14 2.31 C7.1 2.2 4.05 2.1 1 2 C0.67 1.34 0.34 0.68 0 0 Z " fill="#F5ECD7" transform="translate(543,1011)"/>
<path d="M0 0 C0.33 0 0.66 0 1 0 C2.59 6.59 3.64 13.15 4.54 19.86 C4.91 22.83 4.91 22.83 5.53 24.98 C6.5 29.12 6.47 33.45 6.72 37.69 C6.88 40.79 6.88 40.79 7.5 42.86 C10.44 55.53 8.47 71.25 6.62 84 C6.5 84.87 6.37 85.74 6.24 86.64 C5.62 90.5 5.22 92.68 3 96 C3.14 94.95 3.29 93.9 3.44 92.82 C8.29 56.78 8.29 56.78 2 22 C1.69 19.18 1.49 16.36 1.28 13.53 C1.15 11.01 1.15 11.01 0 9 C-0.07 7.46 -0.08 5.92 -0.06 4.38 C-0.05 3.56 -0.04 2.74 -0.04 1.9 C-0.02 1.27 -0.01 0.65 0 0 Z " fill="#F6EFDC" transform="translate(701,583)"/>
<path d="M0 0 C0.66 0.33 1.32 0.66 2 1 C1.94 1.67 1.88 2.34 1.82 3.03 C0.65 16.34 -0.19 29.58 -0.19 42.94 C-0.19 44.07 -0.19 45.19 -0.19 46.36 C-0.15 52.73 0.2 59.01 0.78 65.36 C1.04 68.5 1.1 71.6 1.06 74.75 C1.05 75.76 1.04 76.76 1.04 77.8 C1.02 78.52 1.01 79.25 1 80 C0.34 80 -0.32 80 -1 80 C-0.99 79.33 -0.98 78.67 -0.96 77.98 C-0.9 71.3 -1.01 64.62 -2 58 C-2.33 57.67 -2.66 57.34 -3 57 C-3.27 54.53 -3.48 52.1 -3.62 49.62 C-3.69 48.54 -3.69 48.54 -3.76 47.44 C-4.1 41.04 -4.23 34.42 -2.5 28.19 C-1.92 25.66 -1.8 23.28 -1.72 20.68 C-1.66 19.17 -1.66 19.17 -1.61 17.62 C-1.54 15.49 -1.46 13.37 -1.39 11.24 C-1.34 9.73 -1.34 9.73 -1.28 8.18 C-1.25 7.26 -1.22 6.34 -1.19 5.39 C-1 3 -1 3 0 0 Z " fill="#F5EEDA" transform="translate(374,781)"/>
<path d="M0 0 C7.32 -0.13 7.32 -0.13 10.67 0.5 C14.36 1.05 17.96 1.14 21.68 1.13 C22.41 1.13 23.14 1.13 23.89 1.14 C25.44 1.14 26.98 1.13 28.53 1.13 C30.83 1.13 33.14 1.13 35.45 1.14 C45.33 1.14 55.14 0.74 65 0 C48.87 8.45 19.21 6.43 2 2 C1.34 1.34 0.68 0.68 0 0 Z " fill="#F6EFDC" transform="translate(541,984)"/>
<path d="M0 0 C0.33 0 0.66 0 1 0 C2.55 4.12 3.25 7.52 3.23 11.91 C3.23 13.05 3.23 14.2 3.23 15.37 C3.22 16.59 3.21 17.8 3.2 19.05 C3.19 20.31 3.19 21.57 3.19 22.86 C3.18 26.19 3.16 29.51 3.14 32.84 C3.12 36.23 3.11 39.63 3.1 43.03 C3.08 49.69 3.04 56.34 3 63 C2.34 62.67 1.68 62.34 1 62 C1.01 60.69 1.01 59.38 1.02 58.03 C1.03 53.1 1.05 48.16 1.05 43.23 C1.06 41.1 1.07 38.98 1.08 36.86 C1.12 24.53 1 12.3 0 0 Z " fill="#F0E9D6" transform="translate(731,656)"/>
<path d="M0 0 C1.49 0.99 1.49 0.99 3 2 C3.36 4.75 3.56 7.31 3.62 10.06 C3.35 14.92 3.35 14.92 5 19 C5.07 20.69 5.08 22.38 5.06 24.06 C5.05 24.98 5.04 25.9 5.04 26.85 C5.02 27.56 5.01 28.27 5 29 C4.67 29 4.34 29 4 29 C1.8 19.43 0.94 9.76 0 0 Z " fill="#F6EFDC" transform="translate(262,799)"/>
<path d="M0 0 C3.22 1.07 3.83 1.7 5.88 4.25 C8.44 7.36 11.11 10.2 14 13 C13.01 13.5 13.01 13.5 12 14 C10.7 12.92 9.41 11.84 8.12 10.75 C7.41 10.15 6.69 9.54 5.95 8.92 C4.03 7.03 3.04 5.46 2 3 C1.34 3 0.68 3 0 3 C0 2.01 0 1.02 0 0 Z " fill="#F0BA81" transform="translate(404,906)"/>
<path d="M0 0 C0.33 0 0.66 0 1 0 C2.67 4.65 3.74 9.22 4.62 14.06 C4.76 14.76 4.89 15.45 5.03 16.17 C5.71 19.82 6.16 23.28 6 27 C5.34 26.67 4.68 26.34 4 26 C3.66 24.11 3.66 24.11 3.5 21.75 C3.32 19.07 3.04 17.09 2.01 14.6 C0.83 11.57 0.59 8.93 0.38 5.69 C0.26 4.08 0.26 4.08 0.15 2.45 C0.1 1.64 0.05 0.83 0 0 Z " fill="#F6EFDC" transform="translate(778,633)"/>
<path d="M0 0 C0.33 0 0.66 0 1 0 C1 6.27 1 12.54 1 19 C-0.65 19.33 -2.3 19.66 -4 20 C-4 19.34 -4 18.68 -4 18 C-3.34 18 -2.68 18 -2 18 C-1.07 12.02 -0.51 6.03 0 0 Z " fill="#E0CDB1" transform="translate(264,725)"/>
<path d="M0 0 C7.08 -0.12 13.97 0.15 21 1 C21 1.33 21 1.66 21 2 C18.06 2.25 15.13 2.47 12.19 2.69 C10.94 2.8 10.94 2.8 9.66 2.91 C8.46 2.99 8.46 2.99 7.23 3.07 C6.49 3.13 5.75 3.19 4.99 3.25 C2.43 2.93 1.61 1.95 0 0 Z " fill="#F3DAB8" transform="translate(421,885)"/>
<path d="M0 0 C0.99 0.66 1.98 1.32 3 2 C-0.47 5.47 -5.59 5.87 -10.37 6.12 C-12.25 6.12 -14.12 6.07 -16 6 C-16 5.67 -16 5.34 -16 5 C-15.26 4.88 -14.51 4.75 -13.75 4.62 C-11.04 4.15 -11.04 4.15 -9 2.88 C-6.35 1.72 -4.73 2.24 -2 3 C-2 2.34 -2 1.68 -2 1 C-1.34 0.67 -0.68 0.34 0 0 Z " fill="#F3D6B2" transform="translate(582,872)"/>
<path d="M0 0 C0.33 0 0.66 0 1 0 C1.04 2.33 1.04 4.67 1 7 C0.67 7.33 0.34 7.66 0 8 C-0.23 9.35 -0.41 10.7 -0.56 12.06 C-0.71 13.36 -0.85 14.66 -1 16 C-1.99 16.33 -2.98 16.66 -4 17 C-4.33 16.01 -4.66 15.02 -5 14 C-4.67 13.34 -4.34 12.68 -4 12 C-3.34 12 -2.68 12 -2 12 C-2.23 10.95 -2.45 9.9 -2.69 8.81 C-3.03 4.62 -2.56 3.24 0 0 Z " fill="#F3D9B7" transform="translate(273,684)"/>
<path d="M0 0 C0.66 0.33 1.32 0.66 2 1 C0.44 4.82 -1.96 7.26 -5 10 C-5.66 10 -6.32 10 -7 10 C-7.99 10.5 -7.99 10.5 -9 11 C-7.71 8.13 -6.43 6.02 -4 4 C-3.34 4 -2.68 4 -2 4 C-1.34 2.68 -0.68 1.36 0 0 Z " fill="#E1A264" transform="translate(376,511)"/>
<path d="M0 0 C1.18 0.2 2.36 0.41 3.57 0.62 C4.48 0.78 5.38 0.95 6.31 1.12 C6.31 1.46 6.31 1.78 6.31 2.12 C-0.12 2.62 -0.12 2.62 -6.69 3.12 C-7.02 4.77 -7.35 6.42 -7.69 8.12 C-8.02 8.12 -8.35 8.12 -8.69 8.12 C-9.02 5.82 -9.35 3.5 -9.69 1.12 C-5.84 -1.44 -4.46 -0.79 0 0 Z " fill="#D5CFBE" transform="translate(407.6875,882.875)"/>
<path d="M0 0 C2 2 2 2 2 5 C2.66 5 3.32 5 4 5 C5.72 8.98 7.41 12.96 9 17 C8.34 17 7.68 17 7 17 C3.18 12.07 0 6.35 0 0 Z " fill="#F4E3C8" transform="translate(742,545)"/>
<path d="M0 0 C0.66 0.33 1.32 0.66 2 1 C-2.29 5.29 -6.58 9.58 -11 14 C-11 11 -11 11 -8.59 8.3 C-7.57 7.3 -6.54 6.3 -5.5 5.31 C-4.98 4.8 -4.45 4.29 -3.91 3.76 C-2.61 2.5 -1.31 1.25 0 0 Z " fill="#E38F40" transform="translate(588,768)"/>
<path d="M0 0 C0.66 0.66 1.32 1.32 2 2 C-0.64 4.64 -3.28 7.28 -6 10 C-6.66 9.34 -7.32 8.68 -8 8 C-5.36 5.36 -2.72 2.72 0 0 Z " fill="#F2CEA4" transform="translate(588,772)"/>
<path d="M0 0 C0.66 0.33 1.32 0.66 2 1 C-0.64 3.64 -3.28 6.28 -6 9 C-6 6 -6 6 -4.69 4.39 C-4.13 3.87 -3.57 3.35 -3 2.81 C-2.44 2.28 -1.89 1.75 -1.31 1.21 C-0.66 0.61 -0.66 0.61 0 0 Z " fill="#F6EFDC" transform="translate(511,527)"/>
<path d="M0 0 C0.33 0 0.66 0 1 0 C1 4.62 1 9.24 1 14 C0.67 14 0.34 14 0 14 C0 9.38 0 4.76 0 0 Z " fill="#F3D8B5" transform="translate(731,678)"/>
<path d="M0 0 C0 3 0 3 -1.31 4.39 C-2.88 5.59 -4.44 6.8 -6 8 C-4.56 4.63 -2.67 2.49 0 0 Z " fill="#EB8527" transform="translate(322,581)"/>
<path d="M0 0 C0.66 0.33 1.32 0.66 2 1 C0.02 2.98 -1.96 4.96 -4 7 C-4.66 6.67 -5.32 6.34 -6 6 C-4.02 4.02 -2.04 2.04 0 0 Z " fill="#F6EFDC" transform="translate(541,499)"/>
<path d="M0 0 C-2.35 1.43 -3.48 2.09 -6.25 1.62 C-6.83 1.42 -7.4 1.21 -8 1 C-5.29 -0.35 -2.99 -0.07 0 0 Z " fill="#F6EFDC" transform="translate(640,975)"/>
<path d="M0 0 C0 0.99 0 1.98 0 3 C-2 4.69 -2 4.69 -4 6 C-2.85 3.53 -1.95 1.95 0 0 Z " fill="#F6EFDC" transform="translate(487,555)"/>
<path d="M0 0 C0.66 0.33 1.32 0.66 2 1 C1.67 1.66 1.34 2.32 1 3 C0.34 3 -0.32 3 -1 3 C-1.33 3.66 -1.66 4.32 -2 5 C-1.12 1.12 -1.12 1.12 0 0 Z " fill="#F4E3C7" transform="translate(712,927)"/>
<path d="M0 0 C2.97 0 5.94 0 9 0 C9 0.33 9 0.66 9 1 C6.03 1 3.06 1 0 1 C0 0.67 0 0.34 0 0 Z " fill="#F6EFDC" transform="translate(558,810)"/>
<path d="M0 0 C0 0.99 0 1.98 0 3 C-1.98 3.99 -1.98 3.99 -4 5 C-2.68 3.35 -1.36 1.7 0 0 Z " fill="#F6EFDC" transform="translate(661,760)"/>
<path d="M0 0 C0.66 0.33 1.32 0.66 2 1 C0.35 2.32 -1.3 3.64 -3 5 C-1.12 1.12 -1.12 1.12 0 0 Z " fill="#EEA863" transform="translate(600,751)"/>
<path d="M0 0 C0.33 0.99 0.66 1.98 1 3 C0.34 3 -0.32 3 -1 3 C-1 3.66 -1 4.32 -1 5 C-1.66 4.67 -2.32 4.34 -3 4 C-2.67 3.34 -2.34 2.68 -2 2 C-1.34 2 -0.68 2 0 2 C0 1.34 0 0.68 0 0 Z " fill="#EB8527" transform="translate(703,792)"/>
<path d="M0 0 C0 0.99 0 1.98 0 3 C-0.99 3 -1.98 3 -3 3 C-2.01 2.01 -1.02 1.02 0 0 Z " fill="#EB8527" transform="translate(684,816)"/>
<path d="M0 0 C0.33 1.32 0.66 2.64 1 4 C0.01 4 -0.98 4 -2 4 C-1.34 2.68 -0.68 1.36 0 0 Z " fill="#C97221" transform="translate(559,800)"/>
<path d="M0 0 C0 0.99 0 1.98 0 3 C-0.99 3 -1.98 3 -3 3 C-2.01 2.01 -1.02 1.02 0 0 Z " fill="#EB8527" transform="translate(596,758)"/>
<path d="M0 0 C0.66 0.33 1.32 0.66 2 1 C1.34 1.66 0.68 2.32 0 3 C-0.99 2.67 -1.98 2.34 -3 2 C-2.01 1.34 -1.02 0.68 0 0 Z " fill="#211305" transform="translate(367,230)"/>
<path d="M0 0 C1.98 0 3.96 0 6 0 C6 0.33 6 0.66 6 1 C4.02 1 2.04 1 0 1 C0 0.67 0 0.34 0 0 Z " fill="#F6EFDC" transform="translate(570,808)"/>
<path d="M0 0 C0.66 0.33 1.32 0.66 2 1 C0.02 1.99 0.02 1.99 -2 3 C-1.34 2.01 -0.68 1.02 0 0 Z " fill="#EB8527" transform="translate(566,792)"/>
<path d="M0 0 C0.66 0.33 1.32 0.66 2 1 C1.67 1.66 1.34 2.32 1 3 C0.01 2.67 -0.98 2.34 -2 2 C-1.34 2 -0.68 2 0 2 C0 1.34 0 0.68 0 0 Z " fill="#EB8527" transform="translate(573,785)"/>
<path d="M0 0 C0.66 0.33 1.32 0.66 2 1 C0.02 1.99 0.02 1.99 -2 3 C-1.34 2.01 -0.68 1.02 0 0 Z " fill="#EB8527" transform="translate(608,739)"/>
<path d="M0 0 C0.66 0.33 1.32 0.66 2 1 C0.02 1.99 0.02 1.99 -2 3 C-2 2.34 -2 1.68 -2 1 C-1.34 0.67 -0.68 0.34 0 0 Z " fill="#F6EFDC" transform="translate(515,524)"/>
<path d="M0 0 C0 0.99 0 1.98 0 3 C-0.99 2.67 -1.98 2.34 -3 2 C-2.01 1.34 -1.02 0.68 0 0 Z " fill="#EB8527" transform="translate(402,476)"/>
<path d="M0 0 C0.66 0.33 1.32 0.66 2 1 C0.68 1.33 -0.64 1.66 -2 2 C-1.34 1.34 -0.68 0.68 0 0 Z " fill="#F6EFDC" transform="translate(656,967)"/>
<path d="M0 0 C0.33 0.99 0.66 1.98 1 3 C0.01 2.67 -0.98 2.34 -2 2 C-1.34 2 -0.68 2 0 2 C0 1.34 0 0.68 0 0 Z " fill="#EB8527" transform="translate(622,857)"/>
<path d="M0 0 C0.33 0.99 0.66 1.98 1 3 C0.01 3.5 0.01 3.5 -1 4 C-0.67 2.68 -0.34 1.36 0 0 Z " fill="#F6EFDC" transform="translate(768,838)"/>
<path d="M0 0 C0 0.99 0 1.98 0 3 C-0.66 2.67 -1.32 2.34 -2 2 C-1.34 1.34 -0.68 0.68 0 0 Z " fill="#EB8527" transform="translate(689,811)"/>
<path d="M0 0 C0.66 0.33 1.32 0.66 2 1 C0.68 1.33 -0.64 1.66 -2 2 C-1.34 1.34 -0.68 0.68 0 0 Z " fill="#F6EFDC" transform="translate(612,795)"/>
<path d="M0 0 C0.99 0.33 1.98 0.66 3 1 C1.68 1.33 0.36 1.66 -1 2 C-0.67 1.34 -0.34 0.68 0 0 Z " fill="#F6EFDC" transform="translate(623,789)"/>
<path d="M0 0 C0.33 0.99 0.66 1.98 1 3 C0.01 3.5 0.01 3.5 -1 4 C-0.67 2.68 -0.34 1.36 0 0 Z " fill="#F6EFDC" transform="translate(394,708)"/>
<path d="M0 0 C0.33 0 0.66 0 1 0 C1 1.65 1 3.3 1 5 C0.67 5 0.34 5 0 5 C0 3.35 0 1.7 0 0 Z " fill="#F6EFDC" transform="translate(731,695)"/>
<path d="M0 0 C0.33 0.66 0.66 1.32 1 2 C0.34 2.66 -0.32 3.32 -1 4 C-0.67 2.68 -0.34 1.36 0 0 Z " fill="#F6EFDC" transform="translate(408,674)"/>
<path d="M0 0 C0.33 0.99 0.66 1.98 1 3 C0.01 2.67 -0.98 2.34 -2 2 C-1.34 2 -0.68 2 0 2 C0 1.34 0 0.68 0 0 Z " fill="#EB8527" transform="translate(429,432)"/>
<path d="M0 0 C4 1 4 1 4 1 Z " fill="#F6EFDC" transform="translate(493,1042)"/>
<path d="M0 0 C0.66 0.33 1.32 0.66 2 1 C1.01 1 0.02 1 -1 1 C-0.67 0.67 -0.34 0.34 0 0 Z " fill="#F6EFDC" transform="translate(653,1028)"/>
<path d="M0 0 C4 1 4 1 4 1 Z " fill="#F6EFDC" transform="translate(507,975)"/>
<path d="M0 0 C0 3 0 3 0 3 Z " fill="#F6EFDC" transform="translate(755,868)"/>
<path d="M0 0 C0.33 0.66 0.66 1.32 1 2 C0.01 1.67 -0.98 1.34 -2 1 C-1.34 0.67 -0.68 0.34 0 0 Z " fill="#EB8527" transform="translate(603,865)"/>
<path d="M0 0 C0.66 0.33 1.32 0.66 2 1 C1.01 1 0.02 1 -1 1 C-0.67 0.67 -0.34 0.34 0 0 Z " fill="#EB8527" transform="translate(631,853)"/>
<path d="M0 0 C0.33 0.66 0.66 1.32 1 2 C0.01 1.67 -0.98 1.34 -2 1 C-1.34 0.67 -0.68 0.34 0 0 Z " fill="#EB8527" transform="translate(640,849)"/>
<path d="M0 0 C0.66 0.33 1.32 0.66 2 1 C1.01 1 0.02 1 -1 1 C-0.67 0.67 -0.34 0.34 0 0 Z " fill="#EB8527" transform="translate(645,846)"/>
<path d="M0 0 C1 4 1 4 1 4 Z " fill="#F6EFDC" transform="translate(766,842)"/>
<path d="M0 0 C0.33 0.99 0.66 1.98 1 3 C0.34 2.67 -0.32 2.34 -1 2 C-0.67 1.34 -0.34 0.68 0 0 Z " fill="#EB8527" transform="translate(569,789)"/>
<path d="M0 0 C0 3 0 3 0 3 Z " fill="#EB8527" transform="translate(708,785)"/>
<path d="M0 0 C0.33 0.99 0.66 1.98 1 3 C0.34 2.67 -0.32 2.34 -1 2 C-0.67 1.34 -0.34 0.68 0 0 Z " fill="#EB8527" transform="translate(710,778)"/>
<path d="M0 0 C0.33 0.99 0.66 1.98 1 3 C0.34 2.67 -0.32 2.34 -1 2 C-0.67 1.34 -0.34 0.68 0 0 Z " fill="#EB8527" transform="translate(722,752)"/>
<path d="M0 0 C1 4 1 4 1 4 Z " fill="#F6EFDC" transform="translate(392,712)"/>
<path d="M0 0 C3 1 3 1 3 1 Z " fill="#F2CB9F" transform="translate(484,994)"/>
<path d="M0 0 C3 1 3 1 3 1 Z " fill="#F6EFDC" transform="translate(490,968)"/>
<path d="M0 0 C0.33 0.66 0.66 1.32 1 2 C0.34 1.67 -0.32 1.34 -1 1 C-0.67 0.67 -0.34 0.34 0 0 Z " fill="#F6EFDC" transform="translate(700,939)"/>
<path d="M0 0 C0.66 0 1.32 0 2 0 C1.67 0.66 1.34 1.32 1 2 C0.67 1.34 0.34 0.68 0 0 Z " fill="#F6EFDC" transform="translate(301,918)"/>
<path d="M0 0 C3 1 3 1 3 1 Z " fill="#EB8527" transform="translate(551,878)"/>
<path d="M0 0 C3 1 3 1 3 1 Z " fill="#EB8527" transform="translate(606,864)"/>
<path d="" fill="#F6EFDC" transform="translate(0,0)"/>
<path d="M0 0 C0.33 0.66 0.66 1.32 1 2 C0.34 1.67 -0.32 1.34 -1 1 C-0.67 0.67 -0.34 0.34 0 0 Z " fill="#EB8527" transform="translate(626,856)"/>
<path d="M0 0 C0.33 0.66 0.66 1.32 1 2 C0.34 1.67 -0.32 1.34 -1 1 C-0.67 0.67 -0.34 0.34 0 0 Z " fill="#EB8527" transform="translate(652,842)"/>
<path d="" fill="#F6EFDC" transform="translate(0,0)"/>
<path d="M0 0 C0.33 0.66 0.66 1.32 1 2 C0.34 1.67 -0.32 1.34 -1 1 C-0.67 0.67 -0.34 0.34 0 0 Z " fill="#EB8527" transform="translate(717,767)"/>
<path d="M0 0 C0.33 0.66 0.66 1.32 1 2 C0.34 1.67 -0.32 1.34 -1 1 C-0.67 0.67 -0.34 0.34 0 0 Z " fill="#F6EFDC" transform="translate(673,746)"/>
<path d="M0 0 C0.33 0.66 0.66 1.32 1 2 C0.34 1.67 -0.32 1.34 -1 1 C-0.67 0.67 -0.34 0.34 0 0 Z " fill="#EB8527" transform="translate(613,732)"/>
<path d="" fill="#EB8527" transform="translate(0,0)"/>
<path d="M0 0 C0.33 0.66 0.66 1.32 1 2 C0.34 1.67 -0.32 1.34 -1 1 C-0.67 0.67 -0.34 0.34 0 0 Z " fill="#EB8527" transform="translate(622,711)"/>
<path d="" fill="#F6EFDC" transform="translate(0,0)"/>
<path d="M0 0 C0.33 0.66 0.66 1.32 1 2 C0.34 1.67 -0.32 1.34 -1 1 C-0.67 0.67 -0.34 0.34 0 0 Z " fill="#EB8527" transform="translate(276,672)"/>
<path d="M0 0 C0.33 0.66 0.66 1.32 1 2 C0.34 1.67 -0.32 1.34 -1 1 C-0.67 0.67 -0.34 0.34 0 0 Z " fill="#F6EFDC" transform="translate(420,651)"/>
<path d="M0 0 C0.33 0.66 0.66 1.32 1 2 C0.34 1.67 -0.32 1.34 -1 1 C-0.67 0.67 -0.34 0.34 0 0 Z " fill="#F6EFDC" transform="translate(445,609)"/>
<path d="M0 0 C0.99 0.5 0.99 0.5 2 1 C1.01 1.5 1.01 1.5 0 2 C0 1.34 0 0.68 0 0 Z " fill="#EB8527" transform="translate(323,578)"/>
<path d="M0 0 C0.33 0.66 0.66 1.32 1 2 C0.34 1.67 -0.32 1.34 -1 1 C-0.67 0.67 -0.34 0.34 0 0 Z " fill="#EB8527" transform="translate(332,567)"/>
<path d="M0 0 C0.33 0.66 0.66 1.32 1 2 C0.34 1.67 -0.32 1.34 -1 1 C-0.67 0.67 -0.34 0.34 0 0 Z " fill="#F6EFDC" transform="translate(501,539)"/>
<path d="" fill="#F6EFDC" transform="translate(0,0)"/>
<path d="M0 0 C0.33 0.66 0.66 1.32 1 2 C0.34 1.67 -0.32 1.34 -1 1 C-0.67 0.67 -0.34 0.34 0 0 Z " fill="#F6EFDC" transform="translate(531,509)"/>
<path d="M0 0 C0.99 0.5 0.99 0.5 2 1 C1.01 1.5 1.01 1.5 0 2 C0 1.34 0 0.68 0 0 Z " fill="#F6EFDC" transform="translate(546,493)"/>
<path d="M0 0 C0.33 0.66 0.66 1.32 1 2 C0.34 1.67 -0.32 1.34 -1 1 C-0.67 0.67 -0.34 0.34 0 0 Z " fill="#EB8527" transform="translate(413,460)"/>
<path d="" fill="#EB8527" transform="translate(0,0)"/>
<path d="M0 0 C0.99 0.5 0.99 0.5 2 1 C1.01 1.5 1.01 1.5 0 2 C0 1.34 0 0.68 0 0 Z " fill="#EB8527" transform="translate(416,455)"/>
<path d="M0 0 C0.33 0.66 0.66 1.32 1 2 C0.34 1.67 -0.32 1.34 -1 1 C-0.67 0.67 -0.34 0.34 0 0 Z " fill="#EB8527" transform="translate(427,437)"/>
<path d="M0 0 C0.99 0.5 0.99 0.5 2 1 C1.01 1.5 1.01 1.5 0 2 C0 1.34 0 0.68 0 0 Z " fill="#EB8527" transform="translate(434,418)"/>
<path d="M0 0 C0.33 0.66 0.66 1.32 1 2 C0.34 1.67 -0.32 1.34 -1 1 C-0.67 0.67 -0.34 0.34 0 0 Z " fill="#EB8527" transform="translate(441,402)"/>
<path d="M0 0 C2 1 2 1 2 1 Z " fill="#F6EFDC" transform="translate(666,1020)"/>
<path d="M0 0 C2 1 2 1 2 1 Z " fill="#F6EFDC" transform="translate(401,1010)"/>
<path d="M0 0 C2 1 2 1 2 1 Z " fill="#F6EFDC" transform="translate(389,1003)"/>
<path d="M0 0 C2 1 2 1 2 1 Z " fill="#F6EFDC" transform="translate(640,974)"/>
<path d="M0 0 C2 1 2 1 2 1 Z " fill="#F6EFDC" transform="translate(495,970)"/>
<path d="M0 0 C2 1 2 1 2 1 Z " fill="#F6EFDC" transform="translate(652,969)"/>
<path d="M0 0 C2 1 2 1 2 1 Z " fill="#F6EFDC" transform="translate(493,969)"/>
<path d="M0 0 C2 1 2 1 2 1 Z " fill="#F6EFDC" transform="translate(464,954)"/>
<path d="" fill="#EB8527" transform="translate(0,0)"/>
<path d="M0 0 C2 1 2 1 2 1 Z " fill="#EB8527" transform="translate(546,880)"/>
<path d="M0 0 C2 1 2 1 2 1 Z " fill="#EB8527" transform="translate(548,878)"/>
<path d="M0 0 C2 1 2 1 2 1 Z " fill="#EB8527" transform="translate(586,871)"/>
<path d="" fill="#F6EFDC" transform="translate(0,0)"/>
<path d="" fill="#F6EFDC" transform="translate(0,0)"/>
<path d="" fill="#F6EFDC" transform="translate(0,0)"/>
<path d="M0 0 C2 1 2 1 2 1 Z " fill="#EB8527" transform="translate(611,863)"/>
<path d="M0 0 C2 1 2 1 2 1 Z " fill="#EB8527" transform="translate(616,861)"/>
<path d="" fill="#EB8527" transform="translate(0,0)"/>
<path d="" fill="#F6EFDC" transform="translate(0,0)"/>
<path d="M0 0 C2 1 2 1 2 1 Z " fill="#F6EFDC" transform="translate(576,807)"/>
<path d="" fill="#754213" transform="translate(0,0)"/>
<path d="M0 0 C2 1 2 1 2 1 Z " fill="#F6EFDC" transform="translate(605,798)"/>
<path d="M0 0 C2 1 2 1 2 1 Z " fill="#F6EFDC" transform="translate(608,797)"/>
<path d="" fill="#EB8527" transform="translate(0,0)"/>
<path d="M0 0 C2 1 2 1 2 1 Z " fill="#F6EFDC" transform="translate(630,785)"/>
<path d="" fill="#EB8527" transform="translate(0,0)"/>
<path d="" fill="#F0BA81" transform="translate(0,0)"/>
<path d="" fill="#EB8527" transform="translate(0,0)"/>
<path d="" fill="#F6EFDC" transform="translate(0,0)"/>
<path d="" fill="#EB8527" transform="translate(0,0)"/>
<path d="" fill="#F6EFDC" transform="translate(0,0)"/>
<path d="" fill="#F6EFDC" transform="translate(0,0)"/>
<path d="M0 0 C2 1 2 1 2 1 Z " fill="#EB8527" transform="translate(629,676)"/>
<path d="" fill="#EB8527" transform="translate(0,0)"/>
<path d="" fill="#754213" transform="translate(0,0)"/>
<path d="" fill="#F6EFDC" transform="translate(0,0)"/>
<path d="" fill="#F6EFDC" transform="translate(0,0)"/>
<path d="" fill="#F6EFDC" transform="translate(0,0)"/>
<path d="" fill="#754213" transform="translate(0,0)"/>
<path d="" fill="#F6EFDC" transform="translate(0,0)"/>
<path d="" fill="#F6EFDC" transform="translate(0,0)"/>
<path d="" fill="#EB8527" transform="translate(0,0)"/>
<path d="" fill="#EB8527" transform="translate(0,0)"/>
<path d="" fill="#F6EFDC" transform="translate(0,0)"/>
<path d="M0 0 C2 1 2 1 2 1 Z " fill="#EB8527" transform="translate(420,448)"/>
<path d="" fill="#EB8527" transform="translate(0,0)"/>
<path d="" fill="#EB8527" transform="translate(0,0)"/>
<path d="" fill="#F6EFDC" transform="translate(0,0)"/>
<path d="" fill="#EB8527" transform="translate(0,0)"/>
<path d="" fill="#EB8527" transform="translate(0,0)"/>
<path d="" fill="#EB8527" transform="translate(0,0)"/>
<path d="" fill="#F6EFDC" transform="translate(0,0)"/>
<path d="M0 0 C2 1 2 1 2 1 Z " fill="#754213" transform="translate(480,260)"/>
<path d="" fill="#F6EFDC" transform="translate(0,0)"/>
<path d="" fill="#F6EFDC" transform="translate(0,0)"/>
<path d="" fill="#F6EFDC" transform="translate(0,0)"/>
<path d="" fill="#F6EFDC" transform="translate(0,0)"/>
<path d="" fill="#F6EFDC" transform="translate(0,0)"/>
<path d="" fill="#EB8527" transform="translate(0,0)"/>
<path d="" fill="#F6EFDC" transform="translate(0,0)"/>
<path d="" fill="#000000" transform="translate(0,0)"/>
<path d="" fill="#F6EFDC" transform="translate(0,0)"/>
<path d="" fill="#F6EFDC" transform="translate(0,0)"/>
<path d="" fill="#F6EFDC" transform="translate(0,0)"/>
<path d="" fill="#F6EFDC" transform="translate(0,0)"/>
<path d="" fill="#F6EFDC" transform="translate(0,0)"/>
<path d="" fill="#F6EFDC" transform="translate(0,0)"/>
<path d="" fill="#F6EFDC" transform="translate(0,0)"/>
<path d="" fill="#F6EFDC" transform="translate(0,0)"/>
<path d="" fill="#F6EFDC" transform="translate(0,0)"/>
<path d="" fill="#F6EFDC" transform="translate(0,0)"/>
<path d="" fill="#F6EFDC" transform="translate(0,0)"/>
<path d="" fill="#F6EFDC" transform="translate(0,0)"/>
<path d="" fill="#F6EFDC" transform="translate(0,0)"/>
<path d="" fill="#F6EFDC" transform="translate(0,0)"/>
<path d="" fill="#F6EFDC" transform="translate(0,0)"/>
<path d="" fill="#F6EFDC" transform="translate(0,0)"/>
<path d="" fill="#F6EFDC" transform="translate(0,0)"/>
<path d="" fill="#F6EFDC" transform="translate(0,0)"/>
<path d="" fill="#EB8527" transform="translate(0,0)"/>
<path d="" fill="#F6EFDC" transform="translate(0,0)"/>
<path d="" fill="#F6EFDC" transform="translate(0,0)"/>
<path d="" fill="#F6EFDC" transform="translate(0,0)"/>
<path d="" fill="#F6EFDC" transform="translate(0,0)"/>
<path d="" fill="#EB8527" transform="translate(0,0)"/>
<path d="" fill="#F6EFDC" transform="translate(0,0)"/>
<path d="" fill="#EB8527" transform="translate(0,0)"/>
<path d="" fill="#F6EFDC" transform="translate(0,0)"/>
<path d="" fill="#F6EFDC" transform="translate(0,0)"/>
<path d="" fill="#F6EFDC" transform="translate(0,0)"/>
<path d="" fill="#EB8527" transform="translate(0,0)"/>
<path d="" fill="#EB8527" transform="translate(0,0)"/>
<path d="" fill="#EB8527" transform="translate(0,0)"/>
<path d="" fill="#EB8527" transform="translate(0,0)"/>
<path d="" fill="#EB8527" transform="translate(0,0)"/>
<path d="" fill="#EB8527" transform="translate(0,0)"/>
<path d="" fill="#EB8527" transform="translate(0,0)"/>
<path d="" fill="#EB8527" transform="translate(0,0)"/>
<path d="" fill="#EB8527" transform="translate(0,0)"/>
<path d="" fill="#F6EFDC" transform="translate(0,0)"/>
<path d="" fill="#EB8527" transform="translate(0,0)"/>
<path d="" fill="#EB8527" transform="translate(0,0)"/>
<path d="" fill="#EB8527" transform="translate(0,0)"/>
<path d="" fill="#EB8527" transform="translate(0,0)"/>
<path d="" fill="#EB8527" transform="translate(0,0)"/>
<path d="" fill="#EB8527" transform="translate(0,0)"/>
<path d="" fill="#EB8527" transform="translate(0,0)"/>
<path d="" fill="#EB8527" transform="translate(0,0)"/>
<path d="" fill="#EB8527" transform="translate(0,0)"/>
<path d="" fill="#F6EFDC" transform="translate(0,0)"/>
<path d="" fill="#EB8527" transform="translate(0,0)"/>
<path d="" fill="#F6EFDC" transform="translate(0,0)"/>
<path d="" fill="#F6EFDC" transform="translate(0,0)"/>
<path d="" fill="#EB8527" transform="translate(0,0)"/>
<path d="" fill="#EB8527" transform="translate(0,0)"/>
<path d="" fill="#EB8527" transform="translate(0,0)"/>
<path d="" fill="#EB8527" transform="translate(0,0)"/>
<path d="" fill="#EB8527" transform="translate(0,0)"/>
<path d="" fill="#EB8527" transform="translate(0,0)"/>
<path d="" fill="#EB8527" transform="translate(0,0)"/>
<path d="" fill="#EB8527" transform="translate(0,0)"/>
<path d="" fill="#EB8527" transform="translate(0,0)"/>
<path d="" fill="#F6EFDC" transform="translate(0,0)"/>
<path d="" fill="#F6EFDC" transform="translate(0,0)"/>
<path d="" fill="#F6EFDC" transform="translate(0,0)"/>
<path d="" fill="#000000" transform="translate(0,0)"/>
<path d="" fill="#F6EFDC" transform="translate(0,0)"/>
<path d="" fill="#F6EFDC" transform="translate(0,0)"/>
<path d="" fill="#F6EFDC" transform="translate(0,0)"/>
<path d="" fill="#EB8527" transform="translate(0,0)"/>
<path d="" fill="#F6EFDC" transform="translate(0,0)"/>
<path d="" fill="#F6EFDC" transform="translate(0,0)"/>
<path d="" fill="#F6EFDC" transform="translate(0,0)"/>
<path d="" fill="#F6EFDC" transform="translate(0,0)"/>
<path d="" fill="#F6EFDC" transform="translate(0,0)"/>
<path d="" fill="#EB8527" transform="translate(0,0)"/>
<path d="" fill="#EB8527" transform="translate(0,0)"/>
<path d="" fill="#EB8527" transform="translate(0,0)"/>
<path d="" fill="#F6EFDC" transform="translate(0,0)"/>
<path d="" fill="#F6EFDC" transform="translate(0,0)"/>
<path d="" fill="#EB8527" transform="translate(0,0)"/>
<path d="" fill="#000000" transform="translate(0,0)"/>
<path d="" fill="#F6EFDC" transform="translate(0,0)"/>
<path d="" fill="#EB8527" transform="translate(0,0)"/>
<path d="" fill="#F6EFDC" transform="translate(0,0)"/>
<path d="" fill="#F6EFDC" transform="translate(0,0)"/>
<path d="" fill="#F6EFDC" transform="translate(0,0)"/>
<path d="" fill="#EB8527" transform="translate(0,0)"/>
<path d="" fill="#F6EFDC" transform="translate(0,0)"/>
<path d="" fill="#F6EFDC" transform="translate(0,0)"/>
<path d="" fill="#EB8527" transform="translate(0,0)"/>
<path d="" fill="#EB8527" transform="translate(0,0)"/>
<path d="" fill="#EB8527" transform="translate(0,0)"/>
<path d="" fill="#F6EFDC" transform="translate(0,0)"/>
<path d="" fill="#F6EFDC" transform="translate(0,0)"/>
<path d="" fill="#EB8527" transform="translate(0,0)"/>
<path d="" fill="#EB8527" transform="translate(0,0)"/>
<path d="" fill="#EB8527" transform="translate(0,0)"/>
<path d="" fill="#EB8527" transform="translate(0,0)"/>
<path d="" fill="#EB8527" transform="translate(0,0)"/>
<path d="" fill="#EB8527" transform="translate(0,0)"/>
<path d="" fill="#EB8527" transform="translate(0,0)"/>
<path d="" fill="#EB8527" transform="translate(0,0)"/>
<path d="" fill="#F6EFDC" transform="translate(0,0)"/>
<path d="" fill="#F6EFDC" transform="translate(0,0)"/>
<path d="" fill="#EB8527" transform="translate(0,0)"/>
<path d="" fill="#EB8527" transform="translate(0,0)"/>
<path d="" fill="#F6EFDC" transform="translate(0,0)"/>
<path d="" fill="#F6EFDC" transform="translate(0,0)"/>
<path d="" fill="#F6EFDC" transform="translate(0,0)"/>
<path d="" fill="#EB8527" transform="translate(0,0)"/>
<path d="" fill="#F6EFDC" transform="translate(0,0)"/>
<path d="" fill="#F6EFDC" transform="translate(0,0)"/>
<path d="" fill="#F6EFDC" transform="translate(0,0)"/>
<path d="" fill="#F6EFDC" transform="translate(0,0)"/>
<path d="" fill="#EB8527" transform="translate(0,0)"/>
<path d="" fill="#EB8527" transform="translate(0,0)"/>
<path d="" fill="#F6EFDC" transform="translate(0,0)"/>
<path d="" fill="#EB8527" transform="translate(0,0)"/>
<path d="" fill="#EB8527" transform="translate(0,0)"/>
<path d="" fill="#F6EFDC" transform="translate(0,0)"/>
<path d="" fill="#EB8527" transform="translate(0,0)"/>
<path d="" fill="#EB8527" transform="translate(0,0)"/>
<path d="" fill="#F6EFDC" transform="translate(0,0)"/>
<path d="" fill="#F6EFDC" transform="translate(0,0)"/>
<path d="" fill="#EB8527" transform="translate(0,0)"/>
<path d="" fill="#F6EFDC" transform="translate(0,0)"/>
<path d="" fill="#F6EFDC" transform="translate(0,0)"/>
<path d="" fill="#EB8527" transform="translate(0,0)"/>
<path d="" fill="#EB8527" transform="translate(0,0)"/>
<path d="" fill="#000000" transform="translate(0,0)"/>
<path d="" fill="#EB8527" transform="translate(0,0)"/>
<path d="" fill="#000000" transform="translate(0,0)"/>
<path d="" fill="#EB8527" transform="translate(0,0)"/>
<path d="" fill="#000000" transform="translate(0,0)"/>
<path d="" fill="#F6EFDC" transform="translate(0,0)"/>
<path d="" fill="#F6EFDC" transform="translate(0,0)"/>
<path d="" fill="#F6EFDC" transform="translate(0,0)"/>
<path d="" fill="#F6EFDC" transform="translate(0,0)"/>
<path d="" fill="#F6EFDC" transform="translate(0,0)"/>
<path d="" fill="#EB8527" transform="translate(0,0)"/>
<path d="" fill="#F6EFDC" transform="translate(0,0)"/>
<path d="" fill="#F6EFDC" transform="translate(0,0)"/>
<path d="" fill="#F6EFDC" transform="translate(0,0)"/>
<path d="" fill="#EB8527" transform="translate(0,0)"/>
<path d="" fill="#F6EFDC" transform="translate(0,0)"/>
<path d="" fill="#EB8527" transform="translate(0,0)"/>
<path d="" fill="#F6EFDC" transform="translate(0,0)"/>
<path d="" fill="#F6EFDC" transform="translate(0,0)"/>
<path d="" fill="#F6EFDC" transform="translate(0,0)"/>
<path d="" fill="#F6EFDC" transform="translate(0,0)"/>
<path d="" fill="#EB8527" transform="translate(0,0)"/>
<path d="" fill="#F6EFDC" transform="translate(0,0)"/>
<path d="" fill="#000000" transform="translate(0,0)"/>
<path d="" fill="#F6EFDC" transform="translate(0,0)"/>
<path d="" fill="#F6EFDC" transform="translate(0,0)"/>
<path d="" fill="#000000" transform="translate(0,0)"/>
<path d="" fill="#F6EFDC" transform="translate(0,0)"/>
<path d="" fill="#F6EFDC" transform="translate(0,0)"/>
<path d="" fill="#F6EFDC" transform="translate(0,0)"/>
<path d="" fill="#F6EFDC" transform="translate(0,0)"/>
<path d="" fill="#F6EFDC" transform="translate(0,0)"/>
<path d="" fill="#F6EFDC" transform="translate(0,0)"/>
<path d="" fill="#F6EFDC" transform="translate(0,0)"/>
<path d="" fill="#F6EFDC" transform="translate(0,0)"/>
<path d="" fill="#F6EFDC" transform="translate(0,0)"/>
<path d="" fill="#EB8527" transform="translate(0,0)"/>
<path d="" fill="#EB8527" transform="translate(0,0)"/>
<path d="" fill="#F6EFDC" transform="translate(0,0)"/>
<path d="" fill="#EB8527" transform="translate(0,0)"/>
<path d="" fill="#EB8527" transform="translate(0,0)"/>
<path d="" fill="#EB8527" transform="translate(0,0)"/>
<path d="" fill="#EB8527" transform="translate(0,0)"/>
<path d="" fill="#EB8527" transform="translate(0,0)"/>
<path d="" fill="#F6EFDC" transform="translate(0,0)"/>
<path d="" fill="#EB8527" transform="translate(0,0)"/>
<path d="" fill="#EB8527" transform="translate(0,0)"/>
<path d="" fill="#000000" transform="translate(0,0)"/>
<path d="" fill="#EB8527" transform="translate(0,0)"/>
<path d="" fill="#F6EFDC" transform="translate(0,0)"/>
<path d="" fill="#EB8527" transform="translate(0,0)"/>
<path d="" fill="#F6EFDC" transform="translate(0,0)"/>
<path d="" fill="#F6EFDC" transform="translate(0,0)"/>
<path d="" fill="#F6EFDC" transform="translate(0,0)"/>
<path d="" fill="#F6EFDC" transform="translate(0,0)"/>
<path d="" fill="#F6EFDC" transform="translate(0,0)"/>
<path d="" fill="#F6EFDC" transform="translate(0,0)"/>
<path d="" fill="#F6EFDC" transform="translate(0,0)"/>
<path d="" fill="#F6EFDC" transform="translate(0,0)"/>
<path d="" fill="#EB8527" transform="translate(0,0)"/>
<path d="" fill="#F6EFDC" transform="translate(0,0)"/>
<path d="" fill="#F6EFDC" transform="translate(0,0)"/>
<path d="" fill="#EB8527" transform="translate(0,0)"/>
<path d="" fill="#F6EFDC" transform="translate(0,0)"/>
<path d="" fill="#EB8527" transform="translate(0,0)"/>
</svg>
